<?xml version="1.0" standalone="no"?>
<!DOCTYPE svg PUBLIC "-//W3C//DTD SVG 1.1//EN" "http://www.w3.org/Graphics/SVG/1.1/DTD/svg11.dtd" >
<svg xmlns="http://www.w3.org/2000/svg">
<metadata></metadata>
<defs>
<font id="uvn_tin_tuc_hepregular" horiz-adv-x="840" >
<font-face units-per-em="2048" ascent="1638" descent="-410" />
<missing-glyph horiz-adv-x="434" />
<glyph unicode="&#xd;" horiz-adv-x="434" />
<glyph unicode=" "  horiz-adv-x="434" />
<glyph unicode="&#x09;" horiz-adv-x="434" />
<glyph unicode="&#xa0;" horiz-adv-x="434" />
<glyph unicode="!" horiz-adv-x="524" d="M176 1483h170l-33 -1047h-102zM182 0v182h162v-182h-162z" />
<glyph unicode="&#x22;" horiz-adv-x="569" d="M98 881v553h101v-553h-101zM371 881v553h102v-553h-102z" />
<glyph unicode="#" horiz-adv-x="1575" d="M117 479l39 109h325l101 276h-353l35 107h354l173 483h127l-168 -483h264l172 483h127l-170 -483h315l-37 -107h-317l-98 -276h340l-37 -109h-340l-170 -479h-129l172 479h-269l-172 -479h-127l170 479h-327zM612 588h267l96 276h-266z" />
<glyph unicode="$" horiz-adv-x="870" d="M82 401h123q10 -250 180 -274v604q-274 192 -274 428q0 129 73 212t201 93v201h102v-201q255 -30 277 -356h-114q-10 209 -163 248v-541q147 -110 214 -197q96 -123 96 -268q0 -151 -80.5 -243t-229.5 -107v-231h-102v231q-285 47 -303 401zM223 1169q0 -161 162 -280 v467q-162 -13 -162 -187zM487 121q92 6 143 73q48 61 48 156q0 171 -191 305v-534z" />
<glyph unicode="%" horiz-adv-x="1507" d="M86 1174q0 130 90.5 220.5t220.5 90.5t221 -90.5t91 -220.5t-91 -221t-221 -91t-220.5 91t-90.5 221zM199 1171q0 -83 57.5 -140.5t140.5 -57.5t141 57.5t58 140.5q0 84 -57.5 142.5t-141.5 58.5q-83 0 -140.5 -58.5t-57.5 -142.5zM233 -29l897 1514h113l-897 -1514h-113 zM797 287q0 130 90.5 220.5t220.5 90.5t220.5 -90.5t90.5 -220.5t-90.5 -221t-220.5 -91t-220.5 91t-90.5 221zM909 287q0 -84 57.5 -141.5t141.5 -57.5t141.5 57.5t57.5 141.5t-57.5 141t-141.5 57t-141.5 -57t-57.5 -141z" />
<glyph unicode="&#x26;" horiz-adv-x="1036" d="M72 344q0 208 235 465q-98 226 -98 397q0 132 61 211q67 88 195 88q117 0 189 -79q69 -77 69 -195q0 -190 -244 -434q90 -212 250 -410q60 128 68 323l137 -6q-6 -252 -107 -428q77 -88 177 -165l-80 -117q-100 67 -174 153q-137 -176 -336 -176q-156 0 -251 110 q-91 104 -91 263zM213 354q0 -103 57 -170q61 -71 162 -71q121 0 219 123q-151 185 -280 440q-158 -138 -158 -322zM342 1221q0 -137 80 -301q160 152 160 311q0 160 -119 160q-121 0 -121 -170z" />
<glyph unicode="'" horiz-adv-x="295" d="M98 881v553h101v-553h-101z" />
<glyph unicode="(" horiz-adv-x="563" d="M135 674q0 433 250 835h139q-258 -407 -258 -835q0 -427 258 -836h-139q-250 403 -250 836z" />
<glyph unicode=")" horiz-adv-x="563" d="M39 -162q258 409 258 836q0 428 -258 835h139q250 -402 250 -835t-250 -836h-139z" />
<glyph unicode="*" horiz-adv-x="1024" d="M109 1128l47 150l315 -143l-29 346h140l-29 -346l315 143l47 -150l-337 -71l235 -256l-129 -96l-172 305l-172 -305l-129 96l235 256z" />
<glyph unicode="+" horiz-adv-x="1706" d="M254 561v98h551v562h98v-562h549v-98h-549v-561h-98v561h-551z" />
<glyph unicode="," horiz-adv-x="436" d="M127 -293l90 293h-72v186h162v-194l-121 -285h-59z" />
<glyph unicode="-" horiz-adv-x="674" d="M92 467v127h490v-127h-490z" />
<glyph unicode="." horiz-adv-x="436" d="M137 0v182h162v-182h-162z" />
<glyph unicode="/" horiz-adv-x="569" d="M-49 -190l553 1699h114l-555 -1699h-112z" />
<glyph unicode="0" horiz-adv-x="870" d="M84 735q0 430 81 592q84 170 269 170q187 0 272 -170q80 -162 80 -592q0 -429 -80 -590q-85 -170 -272 -170q-186 0 -270 170q-80 162 -80 590zM227 735q0 -377 46 -501q49 -132 161 -132t160 131q45 122 45 502t-45 503q-48 130 -160 130t-161 -132q-46 -124 -46 -501z " />
<glyph unicode="1" horiz-adv-x="870" d="M207 0v123h176v1175l-176 -12v84q143 47 235 115h82v-1362h168v-123h-485z" />
<glyph unicode="2" horiz-adv-x="870" d="M90 0v127q0 42 97 213q59 106 212 319q232 324 232 482q0 97 -46 159q-51 68 -145 68q-195 0 -205 -305h-128q8 428 344 428q153 0 238 -98q81 -93 81 -248q0 -134 -117 -330q-39 -65 -239 -348q-149 -210 -193 -330h545v-137h-676z" />
<glyph unicode="3" horiz-adv-x="870" d="M76 350h127q0 -244 190 -244q207 0 207 318q0 165 -86 235q-77 64 -246 64v117q312 0 312 270q0 101 -36 169q-46 87 -138 87q-149 0 -177 -199h-124q8 144 80 229q78 93 218 93q155 0 241 -118q75 -104 75 -265q0 -232 -180 -320q211 -78 211 -362q0 -186 -80 -305 q-94 -139 -271 -139q-323 0 -323 370z" />
<glyph unicode="4" horiz-adv-x="870" d="M55 332v74l396 1064h206v-1009h154v-129h-154v-357h-141v357h-461zM199 461h317l14 907h-8q-37 -126 -86 -260z" />
<glyph unicode="5" horiz-adv-x="870" d="M113 340h126q4 -242 179 -242q125 0 180 156q37 106 37 260q0 340 -203 340q-125 0 -180 -143l-113 20l49 739h510l-14 -129h-383l-22 -434q60 66 165 66q332 0 332 -459q0 -221 -75 -360q-96 -179 -298 -179q-290 0 -290 365z" />
<glyph unicode="6" horiz-adv-x="870" d="M104 694q0 801 369 801q125 0 199 -82.5t75 -208.5h-130q-19 174 -146 174q-219 0 -225 -607q98 128 233 128q161 0 242 -156q63 -122 63 -299q0 -190 -74 -315q-91 -154 -268 -154q-218 0 -295 271q-43 154 -43 448zM248 528q0 -422 207 -422q188 0 188 343 q0 331 -188 331q-114 0 -203 -141q0 -19 -2 -56t-2 -55z" />
<glyph unicode="7" horiz-adv-x="870" d="M111 1343v127h639v-92l-170 -564h100v-111h-133l-219 -728h-148l224 728h-224v111h258l162 529h-489z" />
<glyph unicode="8" horiz-adv-x="870" d="M72 373q0 220 237 405q-194 152 -194 371q0 152 86 246q88 98 239 98q147 0 237.5 -89.5t90.5 -236.5q0 -218 -215 -381q244 -159 244 -419q0 -165 -100 -277q-104 -115 -267 -115q-169 0 -267 117q-91 109 -91 281zM217 369q0 -106 54 -181q60 -84 163 -84q104 0 163 82 q52 74 52 181q0 200 -215 344q-217 -147 -217 -342zM250 1155q0 -166 186 -303q193 141 193 313q0 89 -52.5 148t-140.5 59q-90 0 -140 -65q-46 -59 -46 -152z" />
<glyph unicode="9" horiz-adv-x="870" d="M82 1026q0 190 73 315q90 154 267 154q219 0 296 -271q44 -153 44 -448q0 -801 -371 -801q-124 0 -199 85q-71 80 -73 206h129q18 -174 147 -174q219 0 225 608q-97 -129 -235 -129q-161 0 -240 156q-63 122 -63 299zM221 1022q0 -332 189 -332q116 0 204 141q4 18 4 111 q0 422 -206 422q-191 0 -191 -342z" />
<glyph unicode=":" horiz-adv-x="483" d="M162 0v182h162v-182h-162zM162 559v182h162v-182h-162z" />
<glyph unicode=";" horiz-adv-x="483" d="M141 -293l88 293h-69v186h162v-194l-121 -285h-60zM160 559v182h162v-182h-162z" />
<glyph unicode="&#x3c;" horiz-adv-x="1706" d="M264 569v82l1178 484v-109l-1022 -416l1022 -413v-109z" />
<glyph unicode="=" horiz-adv-x="1706" d="M254 375v98h1198v-98h-1198zM254 748v98h1198v-98h-1198z" />
<glyph unicode="&#x3e;" horiz-adv-x="1706" d="M264 88v109l1022 413l-1022 416v109l1178 -484v-82z" />
<glyph unicode="?" horiz-adv-x="702" d="M74 1225q7 129 74 204q72 80 198 80q125 0 193.5 -74t68.5 -200q0 -125 -106 -304q-128 -217 -149 -292q-19 -69 -19 -199h-107v21q0 125 20.5 207t71.5 184q49 92 98 183q56 115 56 196q0 166 -135 166q-141 0 -141 -185zM199 0v182h161v-182h-161z" />
<glyph unicode="@" horiz-adv-x="2048" d="M117 537q0 294 179 532q175 234 458 329q166 56 360 56q162 0 308 -44q225 -68 363 -231q146 -173 146 -401q0 -352 -243 -542q-142 -111 -310 -111q-186 0 -192 151q0 5 1 15t1 14q-105 -180 -295 -180q-313 0 -313 328q0 215 122 373q133 173 342 173q190 0 254 -163 l60 125h94l-139 -562q-17 -69 -17 -92q0 -92 107 -92q108 0 211 82q205 163 205 487q0 254 -197.5 417t-509.5 163q-175 0 -320 -49q-257 -88 -409 -311q-150 -218 -150 -492q0 -174 60 -305q91 -200 303 -308q191 -98 426 -98q354 0 635 193l39 -55q-294 -222 -654 -222 q-399 0 -652 207q-273 223 -273 613zM702 444q0 -105 50 -167q54 -68 157 -68q107 0 189.5 71t111.5 189l62 248q-38 198 -215 198q-172 0 -271 -156q-84 -133 -84 -315z" />
<glyph unicode="A" horiz-adv-x="901" d="M27 0l321 1481h209l324 -1481h-160l-86 436h-373l-86 -436h-149zM295 575h309l-155 775z" />
<glyph unicode="B" horiz-adv-x="973" d="M133 0v1481h270q164 0 237 -24q220 -75 220 -339q0 -251 -211 -336q244 -86 244 -368q0 -414 -469 -414h-291zM285 135h153q305 0 305 283q0 291 -317 291h-141v-574zM285 838h141q289 0 289 270q0 143 -87 198q-69 44 -222 44h-121v-512z" />
<glyph unicode="C" horiz-adv-x="950" d="M84 721q0 790 424 790q187 0 284 -144q82 -124 82 -320h-147q-16 331 -221 331q-137 0 -202 -150q-62 -145 -62 -493q0 -259 36 -390q64 -239 252 -239q222 0 222 379h137v-32q0 -211 -86 -336q-99 -146 -301 -146q-418 0 -418 750z" />
<glyph unicode="D" horiz-adv-x="993" d="M141 0v1481h275q295 0 410 -238q81 -168 81 -500q0 -334 -81 -503q-114 -240 -410 -240h-275zM295 140q58 -5 82 -5q209 0 294 133t85 480q0 342 -84.5 474t-292.5 132q-26 0 -84 -5v-1209z" />
<glyph unicode="E" horiz-adv-x="854" d="M133 0v1481h666v-138h-514v-509h377v-136h-377v-561h532v-137h-684z" />
<glyph unicode="F" horiz-adv-x="799" d="M133 0v1481h621v-138h-469v-509h360v-136h-360v-698h-152z" />
<glyph unicode="G" horiz-adv-x="981" d="M84 721q0 790 424 790q187 0 284 -144q82 -124 82 -320h-147q-16 331 -221 331q-138 0 -201 -149q-61 -144 -61 -504q0 -250 36 -382q64 -237 244 -237q112 0 170 88q49 75 49 193v174h-215v133h359v-694h-107l-16 86q-97 -115 -258 -115q-422 0 -422 750z" />
<glyph unicode="H" horiz-adv-x="999" d="M133 0v1481h152v-635h430v635h151v-1481h-151v705h-430v-705h-152z" />
<glyph unicode="I" horiz-adv-x="428" d="M137 0v1481h152v-1481h-152z" />
<glyph unicode="J" horiz-adv-x="551" d="M-12 -18l6 141q63 -21 127 -21q84 0 117.5 53t33.5 261v1065h150v-1101q0 -148 -19 -215q-31 -114 -130 -162q-68 -34 -167 -34q-53 0 -118 13z" />
<glyph unicode="K" horiz-adv-x="909" d="M131 0v1481h154v-791l438 791h151l-294 -523l342 -958h-164l-277 801l-198 -357v-444h-152z" />
<glyph unicode="L" horiz-adv-x="782" d="M141 0v1481h154v-1340h465v-141h-619z" />
<glyph unicode="M" horiz-adv-x="1262" d="M131 0v1481h236l178 -770q48 -209 82 -451q28 207 84 449l180 772h237v-1481h-135v1376l-319 -1376h-94l-316 1376v-1376h-133z" />
<glyph unicode="N" horiz-adv-x="1038" d="M135 0v1481h221l306 -840q63 -173 120 -369q-12 131 -12 293v916h133v-1481h-149l-373 1024q-63 174 -113 342v-1366h-133z" />
<glyph unicode="O" horiz-adv-x="985" d="M84 741q0 768 408 768q409 0 409 -768q0 -770 -409 -770q-408 0 -408 770zM244 776q0 -360 59 -509q61 -156 189 -156q247 0 247 630q0 631 -247 631q-248 0 -248 -596z" />
<glyph unicode="P" horiz-adv-x="909" d="M133 0v1481h248q477 0 477 -402q0 -401 -477 -401h-96v-678h-152zM285 803h129q301 0 301 268q0 272 -301 272h-129v-540z" />
<glyph unicode="Q" horiz-adv-x="985" d="M84 741q0 768 408 768q409 0 409 -768q0 -394 -123 -608q66 -115 162 -121v-131q-171 27 -240 162q-96 -72 -208 -72q-408 0 -408 770zM244 741q0 -630 248 -630q74 0 139 67q-58 81 -119 97l20 120q73 -7 156 -106q51 123 51 411q0 363 -59 517.5t-188 154.5 q-130 0 -189 -145.5t-59 -485.5z" />
<glyph unicode="R" horiz-adv-x="958" d="M133 0v1481h270q478 0 478 -389q0 -279 -234 -355l242 -737h-164l-223 704q-127 -4 -217 -4v-700h-152zM285 834h129q305 0 305 258t-305 258h-129v-516z" />
<glyph unicode="S" horiz-adv-x="891" d="M74 393h143q16 -284 236 -284q103 0 162 73q55 67 55 172q0 124 -105 235q-45 48 -220 182q-143 109 -193 191q-56 92 -56 214q0 142 93 237.5t235 95.5q175 0 270 -116q86 -105 92 -285h-140q-20 274 -216 274q-92 0 -145.5 -56.5t-53.5 -149.5q0 -124 151 -248 l280 -224q151 -151 151 -344q0 -171 -95 -278q-100 -111 -269 -111q-186 0 -284 121q-88 110 -91 301z" />
<glyph unicode="T" horiz-adv-x="782" d="M18 1354v127h744v-127h-297v-1354h-150v1354h-297z" />
<glyph unicode="U" horiz-adv-x="1004" d="M129 518v963h152v-949q0 -271 48 -347q49 -79 173 -79q121 0 171 81q48 77 48 345v949h151v-963q0 -215 -21 -297q-40 -158 -180 -217q-76 -33 -169 -33q-95 0 -171 33q-141 60 -181 217q-21 81 -21 297z" />
<glyph unicode="V" d="M10 1481h152l221 -1010q4 -17 37 -231q22 130 45 237l219 1004h145l-337 -1481h-144z" />
<glyph unicode="W" horiz-adv-x="1268" d="M39 1481h139l135 -881q31 -202 35 -346q13 182 47 350l178 877h121l178 -877q36 -176 48 -350q4 152 34 346l136 881h139l-234 -1481h-135l-203 1063q-18 96 -24 200q-8 -80 -31 -239l-194 -1024h-136z" />
<glyph unicode="X" horiz-adv-x="782" d="M-23 0l318 784l-301 697h162l219 -541l217 541h156l-285 -695l344 -786h-170l-256 629l-248 -629h-156z" />
<glyph unicode="Y" horiz-adv-x="772" d="M-23 1481h158l254 -674l248 674h156l-328 -844v-637h-156v637z" />
<glyph unicode="Z" horiz-adv-x="756" d="M29 0v115l536 1247h-481v119h649v-103l-540 -1243h540v-135h-704z" />
<glyph unicode="[" horiz-adv-x="551" d="M160 -162v1643h362v-78h-231v-1487h231v-78h-362z" />
<glyph unicode="\" horiz-adv-x="569" d="M-51 1509h114l555 -1699h-112z" />
<glyph unicode="]" horiz-adv-x="551" d="M31 -84h229v1487h-229v78h360v-1643h-360v78z" />
<glyph unicode="^" horiz-adv-x="2048" d="M422 901l532 557h140l530 -557h-143l-457 455l-459 -455h-143z" />
<glyph unicode="_" horiz-adv-x="1024" d="M0 -383h1024v-100h-1024v100z" />
<glyph unicode="`" horiz-adv-x="1024" d="M262 1548h178l209 -350h-106z" />
<glyph unicode="a" d="M72 258q0 322 501 449v24q0 119 -21 163q-33 69 -138 69q-137 0 -172 -201l-138 22q51 301 308 301q170 0 242 -95q63 -83 63 -259v-485q0 -126 18 -246h-145l-17 96q-106 -106 -243 -106q-122 0 -191 74q-67 71 -67 194zM213 256q0 -62 39.5 -102.5t101.5 -40.5 q101 0 219 114v344q-146 -32 -239 -100q-121 -87 -121 -215z" />
<glyph unicode="b" d="M123 0v1481h141v-514q100 120 209 120q170 0 241 -207q48 -137 48 -348q0 -557 -291 -557q-108 0 -207 123v-98h-141zM264 240q83 -136 180 -136q170 0 170 441q0 424 -170 424q-95 0 -180 -135v-594z" />
<glyph unicode="c" horiz-adv-x="764" d="M76 530q0 557 323 557q136 0 214 -99q69 -89 75 -230h-131q-10 207 -160 207q-118 0 -158 -171q-20 -88 -20 -264q0 -179 20 -263q39 -167 160 -167q155 0 165 248h130q-1 -155 -68 -257q-79 -118 -227 -118q-323 0 -323 557z" />
<glyph unicode="d" d="M76 532q0 555 286 555q111 0 211 -120v514h142v-1481h-142v98q-98 -123 -208 -123q-289 0 -289 557zM223 545q0 -441 170 -441q97 0 180 136v594q-85 135 -180 135q-170 0 -170 -424z" />
<glyph unicode="e" horiz-adv-x="780" d="M76 530q0 557 323 557q308 0 308 -491q0 -60 -3 -84h-484q1 -170 22 -253q39 -159 157 -159q155 0 165 248h134q-8 -158 -73 -256q-79 -119 -226 -119q-323 0 -323 557zM221 631h340v41q0 293 -164 293t-176 -334z" />
<glyph unicode="f" horiz-adv-x="483" d="M-4 938v125h160v125q0 154 30 217q45 96 179 96q64 0 110 -10v-115q-42 10 -63 10q-80 0 -102 -54q-13 -30 -13 -126v-143h170v-125h-170v-938h-141v938h-160z" />
<glyph unicode="g" horiz-adv-x="760" d="M27 -106q0 114 151 208q-106 56 -106 136q0 84 121 155q-93 95 -93 309q0 379 273 379q137 0 207 -96q74 96 180 96v-132q-28 5 -41 5q-52 0 -103 -47q31 -107 31 -229q0 -354 -270 -354q-16 0 -47 5t-44 5q-26 0 -52 -18q-29 -19 -29 -44q0 -48 51 -67q25 -10 121 -26 q247 -44 322 -124q51 -56 51 -147q0 -133 -126 -202q-101 -56 -245 -56q-143 0 -235 50q-117 63 -117 194zM166 -96q0 -137 219 -137q233 0 233 133q0 126 -307 161q-145 -56 -145 -157zM227 702q0 -114 21 -170q34 -90 129 -90q143 0 143 260q0 263 -143 263 q-95 0 -129 -91q-21 -56 -21 -172z" />
<glyph unicode="h" horiz-adv-x="846" d="M127 0v1481h141v-529q123 138 254 138q203 0 203 -275v-815h-141v768q0 91 -16 132q-27 65 -103 65q-103 0 -197 -140v-825h-141z" />
<glyph unicode="i" horiz-adv-x="389" d="M123 0v1063h143v-1063h-143zM123 1313v168h143v-168h-143z" />
<glyph unicode="j" horiz-adv-x="389" d="M-27 -231q24 -5 50 -5q57 0 78.5 33t21.5 160v1106h143v-1141q0 -136 -30 -194q-43 -84 -164 -84q-31 0 -99 8v117zM123 1313v168h143v-168h-143z" />
<glyph unicode="k" horiz-adv-x="768" d="M123 0v1481h143v-928l279 510h143l-192 -348l243 -715h-151l-182 573l-140 -254v-319h-143z" />
<glyph unicode="l" horiz-adv-x="389" d="M123 0v1481h143v-1481h-143z" />
<glyph unicode="m" horiz-adv-x="1303" d="M127 0v1063h141v-111q123 138 252 138q135 0 197 -142q136 142 260 142q205 0 205 -275v-815h-144v768q0 92 -15 131q-25 66 -101 66q-105 0 -197 -140v-825h-143v768q0 92 -15 131q-26 66 -102 66q-103 0 -197 -140v-825h-141z" />
<glyph unicode="n" horiz-adv-x="846" d="M127 0v1063h141v-111q123 138 252 138q205 0 205 -275v-815h-141v768q0 93 -16 132q-26 65 -103 65q-113 0 -197 -140v-825h-141z" />
<glyph unicode="o" horiz-adv-x="782" d="M72 530q0 557 323 557q316 0 316 -557t-316 -557q-323 0 -323 557zM217 530q0 -177 19 -261q39 -169 157 -169q170 0 170 430q0 433 -170 433q-118 0 -157 -170q-19 -85 -19 -263z" />
<glyph unicode="p" d="M127 -356v1419h96l47 -96q100 120 209 120q170 0 241 -207q48 -137 48 -348q0 -557 -291 -557q-108 0 -207 123v-454h-143zM270 240q88 -136 181 -136q170 0 170 441q0 424 -170 424q-94 0 -181 -135v-594z" />
<glyph unicode="q" d="M72 532q0 555 286 555q111 0 211 -120l47 96h95v-1419h-142v454q-99 -123 -207 -123q-290 0 -290 557zM219 545q0 -441 170 -441q94 0 180 136v594q-85 135 -180 135q-170 0 -170 -424z" />
<glyph unicode="r" horiz-adv-x="539" d="M123 0v1063h143v-123q103 145 242 145q5 0 15.5 -1t15.5 -1v-137q-5 0 -15.5 1t-15.5 1q-155 0 -242 -166v-782h-143z" />
<glyph unicode="s" horiz-adv-x="770" d="M74 258l135 31q12 -83 56 -136q51 -61 130 -61q71 0 113.5 46t42.5 118q0 110 -192 240q-124 84 -171 133q-84 89 -84 192q0 115 75 190.5t190 75.5q234 0 299 -253l-121 -37q-44 174 -172 174q-59 0 -97 -36t-38 -95q0 -91 187 -218q142 -96 184 -142q79 -88 79 -214 q0 -137 -84.5 -214t-222.5 -77q-126 0 -209 80q-80 76 -100 203z" />
<glyph unicode="t" horiz-adv-x="492" d="M12 940v123h142v354h139v-354h190v-123h-190v-682q0 -77 12 -107q20 -51 84 -51h-4q0 2 98 14v-118q-88 -23 -139 -23q-190 0 -190 207v760h-142z" />
<glyph unicode="u" horiz-adv-x="846" d="M123 246v817h141v-768q0 -93 16 -132q26 -65 103 -65q111 0 197 140v825h141v-1063h-141v111q-123 -138 -252 -138q-205 0 -205 273z" />
<glyph unicode="v" horiz-adv-x="776" d="M33 1063h143l215 -911l221 911h133l-262 -1063h-190z" />
<glyph unicode="w" horiz-adv-x="1128" d="M41 1063h137l129 -698q7 -40 19 -158q8 91 22 155l152 701h131l155 -700q10 -43 19 -156q2 53 14 157l129 699h139l-217 -1063h-125l-167 788q-7 31 -11 119q-6 -66 -18 -120l-170 -787h-125z" />
<glyph unicode="x" horiz-adv-x="662" d="M6 0l246 539l-240 524h148l159 -373l173 373h135l-232 -506l267 -557h-150l-182 408l-189 -408h-135z" />
<glyph unicode="y" horiz-adv-x="711" d="M18 1063h148l184 -801l180 801h142l-248 -1059q-41 -175 -108 -257q-87 -105 -246 -105q-31 0 -45 2v131q12 -2 36 -2q182 0 228 239z" />
<glyph unicode="z" horiz-adv-x="680" d="M49 0v109l424 833h-385v121h541v-100l-428 -844h428v-119h-580z" />
<glyph unicode="{" horiz-adv-x="1024" d="M174 477v109q7 0 22 -1t23 -1q143 0 200 70q52 63 52 210v242q0 223 70 297t313 74v-107q-168 0 -214 -49.5t-46 -204.5v-242q0 -145 -30 -213q-43 -95 -167 -131q109 -31 154 -104t45 -262q0 -33 -1.5 -98.5t-1.5 -96.5q0 -178 46 -229q34 -36 101 -45q23 -2 114 -2 v-107h-47q-205 0 -275 84q-61 74 -61 285v244q0 154 -57 217q-40 44 -112 56q-32 5 -128 5z" />
<glyph unicode="|" horiz-adv-x="1024" d="M459 -483v2048h108v-2048h-108z" />
<glyph unicode="}" horiz-adv-x="1024" d="M172 -307q169 0 215 49.5t46 229.5q0 31 -1.5 97t-1.5 99q0 187 44.5 259t154.5 103q-110 32 -154.5 104t-44.5 261q0 33 1.5 99.5t1.5 97.5q0 180 -46 231q-34 36 -101 45q-23 2 -114 2v107h47q204 0 274 -85q62 -76 62 -286v-242q0 -154 57 -217q40 -44 112 -56 q34 -5 128 -5v-109q-7 0 -22 1t-23 1q-143 0 -200 -70q-52 -63 -52 -210v-244q0 -223 -69.5 -296t-313.5 -73v107z" />
<glyph unicode="~" horiz-adv-x="1706" d="M178 471v113q211 145 387 145q101 0 291.5 -69.5t286.5 -69.5q162 0 387 160v-113q-203 -143 -387 -143q-101 0 -289.5 68.5t-288.5 68.5q-158 0 -387 -160z" />
<glyph horiz-adv-x="870" d="M-2 592l25 80h88v149h-101l25 80h80q13 326 94 459q82 137 252 137q177 0 260 -146q58 -103 78 -307h-144q-26 324 -194 324q-101 0 -150 -104q-47 -99 -55 -363h367l-25 -80h-344v-149h338l-25 -80l-311 -1q7 -278 54 -380q48 -109 151 -109q117 0 164 143q23 71 34 240 h146q-17 -225 -72 -338q-84 -172 -272 -172q-173 0 -256 142q-81 138 -92 475h-115z" />
<glyph unicode="&#xa1;" horiz-adv-x="524" d="M176 0l35 1047h100l35 -1047h-170zM180 1298v185h162v-185h-162z" />
<glyph unicode="&#xa2;" horiz-adv-x="870" d="M125 555q0 234 59 358q83 174 289 174l41 259h90l-43 -269q160 -47 172 -319h-114q-4 154 -78 196l-135 -837q24 -6 49 -6q150 0 158 260h118q-14 -372 -295 -372q-23 0 -47 3l-49 -297h-90l51 330q-176 98 -176 520zM254 508q0 -246 70 -346l131 817h-19 q-98 0 -141 -102q-41 -98 -41 -369z" />
<glyph unicode="&#xa3;" horiz-adv-x="870" d="M72 -16v147q170 92 170 369q0 74 -13 176h-157v108h137q-55 294 -55 369q0 144 70 237q78 103 218 103q324 0 324 -418l-131 1q-6 294 -186 294q-162 0 -162 -192q0 -50 48 -320q5 -24 13 -73l207 -1v-108h-188q10 -82 10 -170q0 -131 -43 -252q89 -131 203 -131 q89 0 121 95q18 52 22 169h133v-8q0 -402 -262 -402q-128 0 -270 158q-79 -115 -209 -151z" />
<glyph unicode="&#xa4;" horiz-adv-x="870" d="M-2 592l25 80h88v149h-101l25 80h80q13 326 94 459q82 137 252 137q177 0 260 -146q58 -103 78 -307h-144q-26 324 -194 324q-101 0 -150 -104q-47 -99 -55 -363h367l-25 -80h-344v-149h338l-25 -80l-311 -1q7 -278 54 -380q48 -109 151 -109q117 0 164 143q23 71 34 240 h146q-17 -225 -72 -338q-84 -172 -272 -172q-173 0 -256 142q-81 138 -92 475h-115z" />
<glyph unicode="&#xa5;" horiz-adv-x="772" d="M-6 1470h141l254 -671l248 671h145l-209 -530h185v-80h-215l-60 -149h275v-80h-303v-631h-133v631h-304v80h271l-60 149h-211v80h181z" />
<glyph unicode="&#xa6;" horiz-adv-x="1024" d="M459 -350v758h108v-758h-108zM459 674v758h108v-758h-108z" />
<glyph unicode="&#xa7;" horiz-adv-x="1024" d="M139 809q0 221 230 221q-121 134 -121 244q0 108 76 173q72 62 182 62q185 0 285 -172l-101 -71q-82 129 -178 129q-55 0 -93 -30q-40 -33 -40 -87q0 -40 35 -92q31 -47 165 -182q304 -306 304 -459q0 -95 -68 -151q-63 -51 -161 -54q120 -138 120 -268q0 -120 -78 -188 q-74 -64 -196 -64q-186 0 -299 180l102 74q92 -133 203 -133q58 0 98.5 36t40.5 93q0 76 -131 222q-122 132 -244 263q-131 156 -131 254zM268 827q0 -36 26 -82q46 -83 149 -187q123 -122 194 -122q48 0 80.5 31.5t32.5 79.5q0 41 -30 93q-28 48 -112 139t-130 124 q-53 37 -93 37q-46 0 -81.5 -33.5t-35.5 -79.5z" />
<glyph unicode="&#xa8;" horiz-adv-x="1024" d="M272 1264v186h160v-186h-160zM592 1264v186h160v-186h-160z" />
<glyph unicode="&#xa9;" horiz-adv-x="1706" d="M121 723q0 303 214.5 518t516.5 215q307 0 520 -213t213 -520q0 -150 -53 -281q-83 -201 -272.5 -326.5t-407.5 -125.5q-301 0 -516 216t-215 517zM201 723q0 -267 192 -459t459 -192q272 0 462.5 189.5t190.5 461.5q0 273 -190 463t-463 190q-270 0 -460.5 -191.5 t-190.5 -461.5zM469 727q0 192 98 315q106 134 293 134q128 0 219 -66q98 -72 111 -195h-117q-38 168 -217 168q-138 0 -205 -118q-53 -94 -53 -244q0 -145 55 -239q68 -115 203 -115q89 0 151 50.5t78 137.5h115q-12 -132 -116 -211q-97 -74 -234 -74q-191 0 -292 138 q-89 121 -89 319z" />
<glyph unicode="&#xaa;" horiz-adv-x="631" d="M53 920q0 224 377 315v16q0 85 -17 116q-25 46 -102 46q-101 0 -129 -141l-104 16q37 211 231 211q125 0 179 -63q51 -58 51 -185v-340q0 -88 12 -172h-109l-12 68q-78 -74 -182 -74q-89 0 -142 49.5t-53 137.5zM160 920q0 -45 30.5 -73t75.5 -28q78 0 164 80v240 q-270 -56 -270 -219z" />
<glyph unicode="&#xab;" horiz-adv-x="813" d="M74 530l241 312h123l-235 -312l237 -311h-125zM371 530l243 312h121l-235 -312l237 -311h-125z" />
<glyph unicode="&#xac;" horiz-adv-x="1706" d="M254 758v100h1198v-502h-96v402h-1102z" />
<glyph unicode="&#xad;" horiz-adv-x="674" d="M92 467v127h490v-127h-490z" />
<glyph unicode="&#xae;" horiz-adv-x="1706" d="M121 723q0 303 214.5 518t516.5 215q308 0 520.5 -212.5t212.5 -520.5q0 -150 -53 -281q-83 -201 -272.5 -326.5t-407.5 -125.5q-301 0 -516 216t-215 517zM201 723q0 -267 192 -459t459 -192q272 0 462.5 189t190.5 460q0 276 -188.5 465.5t-464.5 189.5 q-268 0 -459.5 -192.5t-191.5 -460.5zM565 313v844h309q349 0 349 -233q0 -90 -54.5 -149.5t-144.5 -72.5l188 -389h-145l-178 371h-197v-371h-127zM692 768h158q111 0 162 21q80 32 80 126q0 156 -242 156h-158v-303z" />
<glyph unicode="&#xaf;" horiz-adv-x="1024" d="M254 1294v125h516v-125h-516z" />
<glyph unicode="&#xb0;" horiz-adv-x="674" d="M59 1174q0 117 81 197.5t198 80.5q116 0 196 -81t80 -197t-81 -197.5t-197 -81.5q-118 0 -197.5 80.5t-79.5 198.5zM129 1174q0 -87 60.5 -147t148.5 -60t147.5 59.5t59.5 147.5q0 87 -60 147.5t-147 60.5t-148 -60.5t-61 -147.5z" />
<glyph unicode="&#xb1;" horiz-adv-x="1706" d="M254 51v99h1198v-99h-1198zM254 723v98h551v348h98v-348h549v-98h-549v-348h-98v348h-551z" />
<glyph unicode="&#xb2;" horiz-adv-x="575" d="M59 588v76q0 25 62 124q88 119 176 237q119 163 119 247q0 137 -125 137q-128 0 -136 -184h-85q6 258 227 258q98 0 154.5 -55.5t56.5 -153.5q0 -106 -150 -301q-185 -238 -213 -303h361v-82h-447z" />
<glyph unicode="&#xb3;" horiz-adv-x="575" d="M49 799h84q0 -148 127 -148q135 0 135 191q0 103 -61 145q-50 35 -158 35v70q207 0 207 161q0 154 -115 154q-97 0 -117 -119h-81q13 193 196 193q99 0 156 -66q53 -63 53 -164q0 -137 -119 -192q140 -46 140 -217q0 -116 -57 -188q-62 -79 -175 -79q-215 0 -215 224z " />
<glyph unicode="&#xb4;" horiz-adv-x="1024" d="M375 1198l209 350h178l-281 -350h-106z" />
<glyph unicode="&#xb6;" horiz-adv-x="1024" d="M84 1130q0 166 116 261q108 88 277 88h463v-70h-127v-1409h-82v1409h-186v-1409h-84v782q-164 7 -266 94q-111 94 -111 254z" />
<glyph unicode="&#xb7;" horiz-adv-x="436" d="M113 735q0 43 30.5 74t73.5 31t75 -31t32 -74t-32 -74.5t-75 -31.5q-45 0 -74.5 30.5t-29.5 75.5z" />
<glyph unicode="&#xb8;" horiz-adv-x="1024" d="M262 -336q164 -37 246 -37q121 0 121 84q0 100 -136 100q-22 0 -53 -3v192h72v-106q248 0 248 -177q0 -182 -246 -182q-94 0 -252 41v88z" />
<glyph unicode="&#xb9;" horiz-adv-x="573" d="M137 588v74h117v704l-117 -6v49q90 27 156 70h53v-817h111v-74h-320z" />
<glyph unicode="&#xba;" horiz-adv-x="588" d="M53 1110q0 391 244 391q235 0 235 -391q0 -389 -235 -389q-244 0 -244 389zM164 1110q0 -127 14 -186q29 -115 117 -115q127 0 127 301q0 303 -127 303q-88 0 -117 -116q-14 -59 -14 -187z" />
<glyph unicode="&#xbb;" horiz-adv-x="813" d="M74 219l235 311l-235 312h123l243 -312l-241 -311h-125zM371 219l237 311l-235 312h123l241 -312l-241 -311h-125z" />
<glyph unicode="&#xbc;" horiz-adv-x="1438" d="M131 647v70h111v657l-111 -6v47q92 26 148 64h51v-762h106v-70h-305zM209 -29l903 1514h109l-904 -1514h-108zM926 186v41l250 596h129v-565h96v-72h-96v-200h-88v200h-291zM1016 258h201l8 508h-4q-30 -82 -205 -508z" />
<glyph unicode="&#xbd;" horiz-adv-x="1438" d="M131 647v70h111v657l-111 -6v47q92 26 148 64h51v-762h106v-70h-305zM209 -29l903 1514h109l-904 -1514h-108zM948 0v72q21 55 61 119q83 109 167 218q112 150 112 230q0 127 -121 127q-123 0 -129 -170h-79q6 240 217 240q91 0 145.5 -52t54.5 -143q0 -97 -146 -283 q-175 -222 -200 -280h344v-78h-426z" />
<glyph unicode="&#xbe;" horiz-adv-x="1440" d="M47 844h80q0 -137 121 -137q131 0 131 178q0 168 -209 168v65q195 0 195 152q0 143 -109 143q-95 0 -111 -112l-79 -1q13 181 188 181q94 0 148 -61q51 -59 51 -154q0 -130 -113 -179q133 -44 133 -202q0 -109 -55 -177q-59 -73 -166 -73q-205 0 -205 209zM209 -29 l903 1514h109l-904 -1514h-108zM926 186v41l250 596h129v-565h96v-72h-96v-200h-88v200h-291zM1016 258h201l8 508h-4q-30 -82 -205 -508z" />
<glyph unicode="&#xbf;" horiz-adv-x="702" d="M80 246q0 123 106 303q128 218 149 294q20 69 19 197h107q2 -22 2 -57q0 -137 -64 -285l-120 -234q-64 -127 -64 -214q0 -166 135 -166q142 0 142 184l114 -12q-2 -129 -67 -205q-70 -80 -197 -80q-125 0 -194 76q-68 73 -68 199zM328 1298v183h161v-183h-161z" />
<glyph unicode="&#xc0;" horiz-adv-x="901" d="M27 0l321 1481h209l324 -1481h-160l-86 436h-373l-86 -436h-149zM201 1970h178l209 -350h-106zM295 575h309l-155 775z" />
<glyph unicode="&#xc1;" horiz-adv-x="901" d="M27 0l321 1481h209l324 -1481h-160l-86 436h-373l-86 -436h-149zM295 575h309l-155 775zM314 1620l209 350h178l-281 -350h-106z" />
<glyph unicode="&#xc2;" horiz-adv-x="901" d="M27 0l321 1481h209l324 -1481h-160l-86 436h-373l-86 -436h-149zM164 1550l197 350h178l197 -350h-107l-178 244l-180 -244h-107zM295 575h309l-155 775z" />
<glyph unicode="&#xc3;" horiz-adv-x="901" d="M27 0l321 1481h209l324 -1481h-160l-86 436h-373l-86 -436h-149zM160 1679q45 187 199 187q35 0 99 -23.5t99 -23.5q73 0 97 69h88q-50 -192 -199 -192q-35 0 -99 23.5t-99 23.5q-68 0 -97 -64h-88zM295 575h309l-155 775z" />
<glyph unicode="&#xc4;" horiz-adv-x="901" d="M27 0l321 1481h209l324 -1481h-160l-86 436h-373l-86 -436h-149zM211 1686v186h160v-186h-160zM295 575h309l-155 775zM531 1686v186h160v-186h-160z" />
<glyph unicode="&#xc5;" horiz-adv-x="901" d="M27 0l321 1481q-139 79 -139 227q0 105 71.5 176.5t176.5 71.5t176.5 -71.5t71.5 -176.5q0 -163 -148 -227l324 -1481h-160l-86 436h-373l-86 -436h-149zM295 575h309l-155 838zM315 1708q0 -60 42 -101.5t102 -41.5t100.5 41.5t40.5 101.5t-40.5 100.5t-100.5 40.5 q-61 0 -102.5 -40t-41.5 -101z" />
<glyph unicode="&#xc6;" horiz-adv-x="1386" d="M-10 0l583 1481h758v-135h-514v-512h377v-136h-377v-561h533v-137h-684v426h-361l-168 -426h-147zM360 565h306l6 781h-25z" />
<glyph unicode="&#xc7;" horiz-adv-x="950" d="M84 721q0 790 424 790q187 0 284 -144q82 -124 82 -320h-147q-16 331 -221 331q-137 0 -202 -150q-62 -145 -62 -493q0 -259 36 -390q64 -239 252 -239q222 0 222 379h137v-32q0 -211 -86 -336q-99 -146 -301 -146q-418 0 -418 750zM239 -336q164 -37 246 -37 q121 0 121 84q0 100 -136 100q-22 0 -53 -3v192h72v-106q248 0 248 -177q0 -182 -246 -182q-94 0 -252 41v88z" />
<glyph unicode="&#xc8;" horiz-adv-x="854" d="M133 0v1481h666v-138h-514v-509h377v-136h-377v-561h532v-137h-684zM217 1970h178l209 -350h-106z" />
<glyph unicode="&#xc9;" horiz-adv-x="854" d="M133 0v1481h666v-138h-514v-509h377v-136h-377v-561h532v-137h-684zM330 1620l209 350h178l-281 -350h-106z" />
<glyph unicode="&#xca;" horiz-adv-x="854" d="M133 0v1481h666v-138h-514v-509h377v-136h-377v-561h532v-137h-684zM174 1550l197 350h178l197 -350h-107l-178 244l-180 -244h-107z" />
<glyph unicode="&#xcb;" horiz-adv-x="854" d="M133 0v1481h666v-138h-514v-509h377v-136h-377v-561h532v-137h-684zM227 1686v186h160v-186h-160zM547 1686v186h160v-186h-160z" />
<glyph unicode="&#xcc;" horiz-adv-x="428" d="M-35 1970h178l209 -350h-106zM137 0v1481h152v-1481h-152z" />
<glyph unicode="&#xcd;" horiz-adv-x="428" d="M78 1620l209 350h178l-281 -350h-106zM137 0v1481h152v-1481h-152z" />
<glyph unicode="&#xce;" horiz-adv-x="428" d="M-72 1620l197 350h178l197 -350h-107l-178 244l-180 -244h-107zM137 0v1481h152v-1481h-152z" />
<glyph unicode="&#xcf;" horiz-adv-x="428" d="M-25 1686v186h160v-186h-160zM137 0v1481h152v-1481h-152zM295 1686v186h160v-186h-160z" />
<glyph unicode="&#xd0;" horiz-adv-x="1004" d="M40 723v111h112v647h274q295 0 409 -238q80 -168 80 -500q0 -335 -79 -503q-114 -240 -410 -240h-274v723h-112zM303 140q58 -5 82 -5q210 0 295.5 133t85.5 480q0 341 -85 473.5t-294 132.5q-26 0 -84 -5v-515h207v-111h-207v-583z" />
<glyph unicode="&#xd1;" horiz-adv-x="1038" d="M135 0v1481h221l306 -840q63 -173 120 -369q-12 131 -12 293v916h133v-1481h-149l-373 1024q-63 174 -113 342v-1366h-133zM229 1679q45 187 199 187q35 0 99 -23.5t99 -23.5q73 0 97 69h88q-50 -192 -199 -192q-35 0 -99 23.5t-99 23.5q-68 0 -97 -64h-88z" />
<glyph unicode="&#xd2;" horiz-adv-x="985" d="M84 741q0 768 408 768q409 0 409 -768q0 -770 -409 -770q-408 0 -408 770zM244 776q0 -360 59 -509q61 -156 189 -156q247 0 247 630q0 631 -247 631q-248 0 -248 -596zM244 1970h178l209 -350h-106z" />
<glyph unicode="&#xd3;" horiz-adv-x="985" d="M84 741q0 768 408 768q409 0 409 -768q0 -770 -409 -770q-408 0 -408 770zM244 776q0 -360 59 -509q61 -156 189 -156q247 0 247 630q0 631 -247 631q-248 0 -248 -596zM357 1620l209 350h178l-281 -350h-106z" />
<glyph unicode="&#xd4;" horiz-adv-x="985" d="M84 741q0 768 408 768q409 0 409 -768q0 -770 -409 -770q-408 0 -408 770zM204 1550l197 350h178l197 -350h-107l-178 244l-180 -244h-107zM244 776q0 -360 59 -509q61 -156 189 -156q247 0 247 630q0 631 -247 631q-248 0 -248 -596z" />
<glyph unicode="&#xd5;" horiz-adv-x="985" d="M84 741q0 768 408 768q409 0 409 -768q0 -770 -409 -770q-408 0 -408 770zM203 1679q45 187 199 187q35 0 99 -23.5t99 -23.5q73 0 97 69h88q-50 -192 -199 -192q-35 0 -99 23.5t-99 23.5q-68 0 -97 -64h-88zM244 776q0 -360 59 -509q61 -156 189 -156q247 0 247 630 q0 631 -247 631q-248 0 -248 -596z" />
<glyph unicode="&#xd6;" horiz-adv-x="985" d="M84 741q0 768 408 768q409 0 409 -768q0 -770 -409 -770q-408 0 -408 770zM244 776q0 -360 59 -509q61 -156 189 -156q247 0 247 630q0 631 -247 631q-248 0 -248 -596zM254 1686v186h160v-186h-160zM574 1686v186h160v-186h-160z" />
<glyph unicode="&#xd7;" horiz-adv-x="1706" d="M305 129l481 481l-481 482l70 69l481 -481l481 481l70 -69l-481 -482l481 -481l-70 -70l-481 482l-481 -482z" />
<glyph unicode="&#xd8;" horiz-adv-x="985" d="M84 733q0 776 408 776q143 0 225 -88l67 164l97 -43l-93 -219q113 -182 113 -616q0 -736 -418 -736q-118 0 -198 74l-90 -229l-97 47l113 268q-127 186 -127 602zM244 741q0 -241 41 -419l372 946q-56 104 -165 104q-130 0 -189 -145.5t-59 -485.5zM344 195 q51 -84 148 -84q249 0 249 641q0 178 -32 366z" />
<glyph unicode="&#xd9;" horiz-adv-x="1004" d="M129 518v963h152v-949q0 -271 48 -347q49 -79 173 -79q121 0 171 81q48 77 48 345v949h151v-963q0 -215 -21 -297q-40 -158 -180 -217q-76 -33 -169 -33q-95 0 -171 33q-141 60 -181 217q-21 81 -21 297zM252 1970h178l209 -350h-106z" />
<glyph unicode="&#xda;" horiz-adv-x="1004" d="M129 518v963h152v-949q0 -271 48 -347q49 -79 173 -79q121 0 171 81q48 77 48 345v949h151v-963q0 -215 -21 -297q-40 -158 -180 -217q-76 -33 -169 -33q-95 0 -171 33q-141 60 -181 217q-21 81 -21 297zM365 1620l209 350h178l-281 -350h-106z" />
<glyph unicode="&#xdb;" horiz-adv-x="1004" d="M129 518v963h152v-949q0 -271 48 -347q49 -79 173 -79q121 0 171 81q48 77 48 345v949h151v-963q0 -215 -21 -297q-40 -158 -180 -217q-76 -33 -169 -33q-95 0 -171 33q-141 60 -181 217q-21 81 -21 297zM215 1620l197 350h178l197 -350h-107l-178 244l-180 -244h-107z " />
<glyph unicode="&#xdc;" horiz-adv-x="1004" d="M129 518v963h152v-949q0 -271 48 -347q49 -79 173 -79q121 0 171 81q48 77 48 345v949h151v-963q0 -215 -21 -297q-40 -158 -180 -217q-76 -33 -169 -33q-95 0 -171 33q-141 60 -181 217q-21 81 -21 297zM262 1686v186h160v-186h-160zM582 1686v186h160v-186h-160z" />
<glyph unicode="&#xdd;" horiz-adv-x="772" d="M-23 1481h158l254 -674l248 674h156l-328 -844v-637h-156v637zM250 1620l209 350h178l-281 -350h-106z" />
<glyph unicode="&#xde;" horiz-adv-x="915" d="M133 0v1481h152v-295h149q197 0 309 -103q115 -106 115 -301q0 -401 -477 -401h-96v-381h-152zM285 508h129q301 0 301 268q0 273 -301 273h-129v-541z" />
<glyph unicode="&#xdf;" horiz-adv-x="864" d="M121 0v1079q0 404 299 404q313 0 313 -359q0 -217 -155 -297q202 -87 202 -405q0 -440 -278 -440q-62 0 -117 19v136q49 -33 107 -33q147 0 147 342q0 304 -219 310v128q176 9 176 251q0 229 -174 229q-158 0 -158 -274v-1090h-143z" />
<glyph unicode="&#xe0;" d="M72 258q0 322 501 449v24q0 119 -21 163q-33 69 -138 69q-137 0 -172 -201l-138 22q51 301 308 301q170 0 242 -95q63 -83 63 -259v-485q0 -126 18 -246h-145l-17 96q-106 -106 -243 -106q-122 0 -191 74q-67 71 -67 194zM182 1548h178l209 -350h-106zM213 256 q0 -62 39.5 -102.5t101.5 -40.5q101 0 219 114v344q-146 -32 -239 -100q-121 -87 -121 -215z" />
<glyph unicode="&#xe1;" d="M72 258q0 322 501 449v24q0 119 -21 163q-33 69 -138 69q-137 0 -172 -201l-138 22q51 301 308 301q170 0 242 -95q63 -83 63 -259v-485q0 -126 18 -246h-145l-17 96q-106 -106 -243 -106q-122 0 -191 74q-67 71 -67 194zM213 256q0 -62 39.5 -102.5t101.5 -40.5 q101 0 219 114v344q-146 -32 -239 -100q-121 -87 -121 -215zM295 1198l209 350h178l-281 -350h-106z" />
<glyph unicode="&#xe2;" d="M72 258q0 322 501 449v24q0 119 -21 163q-33 69 -138 69q-137 0 -172 -201l-138 22q51 301 308 301q170 0 242 -95q63 -83 63 -259v-485q0 -126 18 -246h-145l-17 96q-106 -106 -243 -106q-122 0 -191 74q-67 71 -67 194zM140 1198l197 350h178l197 -350h-107l-178 244 l-180 -244h-107zM213 256q0 -62 39.5 -102.5t101.5 -40.5q101 0 219 114v344q-146 -32 -239 -100q-121 -87 -121 -215z" />
<glyph unicode="&#xe3;" d="M72 258q0 322 501 449v24q0 119 -21 163q-33 69 -138 69q-137 0 -172 -201l-138 22q51 301 308 301q170 0 242 -95q63 -83 63 -259v-485q0 -126 18 -246h-145l-17 96q-106 -106 -243 -106q-122 0 -191 74q-67 71 -67 194zM141 1257q45 187 199 187q35 0 99 -23.5 t99 -23.5q73 0 97 69h88q-50 -192 -199 -192q-35 0 -99 23.5t-99 23.5q-68 0 -97 -64h-88zM213 256q0 -62 39.5 -102.5t101.5 -40.5q101 0 219 114v344q-146 -32 -239 -100q-121 -87 -121 -215z" />
<glyph unicode="&#xe4;" d="M72 258q0 322 501 449v24q0 119 -21 163q-33 69 -138 69q-137 0 -172 -201l-138 22q51 301 308 301q170 0 242 -95q63 -83 63 -259v-485q0 -126 18 -246h-145l-17 96q-106 -106 -243 -106q-122 0 -191 74q-67 71 -67 194zM192 1264v186h160v-186h-160zM213 256 q0 -62 39.5 -102.5t101.5 -40.5q101 0 219 114v344q-146 -32 -239 -100q-121 -87 -121 -215zM512 1264v186h160v-186h-160z" />
<glyph unicode="&#xe5;" d="M72 258q0 322 501 449v24q0 119 -21 163q-33 69 -138 69q-137 0 -172 -201l-138 22q51 301 308 301q170 0 242 -95q63 -83 63 -259v-485q0 -126 18 -246h-145l-17 96q-106 -106 -243 -106q-122 0 -191 74q-67 71 -67 194zM188 1403q0 105 71.5 176.5t176.5 71.5 t176.5 -71.5t71.5 -176.5q0 -106 -71 -177t-177 -71q-105 0 -176.5 71.5t-71.5 176.5zM213 256q0 -62 39.5 -102.5t101.5 -40.5q101 0 219 114v344q-146 -32 -239 -100q-121 -87 -121 -215zM293 1401q0 -60 41.5 -100.5t101.5 -40.5t101 40.5t41 100.5t-41 101.5t-101 41.5 q-61 0 -102 -41t-41 -102z" />
<glyph unicode="&#xe6;" horiz-adv-x="1276" d="M72 250q0 321 501 450q2 13 2 64q0 197 -153 197q-145 0 -180 -203l-138 22q54 307 324 307q156 0 238 -110q90 110 229 110q305 0 305 -491q0 -54 -2 -84h-485q0 -412 182 -412q154 0 164 248h133q-8 -157 -72 -254q-78 -117 -225 -117q-163 0 -258 146 q-160 -146 -318 -146q-116 0 -183 80q-64 75 -64 193zM213 248q0 -63 39 -104.5t102 -41.5q106 0 219 115v348q-146 -33 -239 -101q-121 -88 -121 -216zM715 633h341q3 17 3 59q0 273 -168 273q-170 0 -176 -332z" />
<glyph unicode="&#xe7;" horiz-adv-x="764" d="M76 530q0 557 323 557q136 0 214 -99q69 -89 75 -230h-131q-10 207 -160 207q-118 0 -158 -171q-20 -88 -20 -264q0 -179 20 -263q39 -167 160 -167q155 0 165 248h130q-1 -155 -68 -257q-79 -118 -227 -118q-323 0 -323 557zM133 -336q164 -37 246 -37q121 0 121 84 q0 100 -136 100q-22 0 -53 -3v192h72v-106q248 0 248 -177q0 -182 -246 -182q-94 0 -252 41v88z" />
<glyph unicode="&#xe8;" horiz-adv-x="780" d="M76 530q0 557 323 557q308 0 308 -491q0 -60 -3 -84h-484q1 -170 22 -253q39 -159 157 -159q155 0 165 248h134q-8 -158 -73 -256q-79 -119 -226 -119q-323 0 -323 557zM156 1548h178l209 -350h-106zM221 631h340v41q0 293 -164 293t-176 -334z" />
<glyph unicode="&#xe9;" horiz-adv-x="780" d="M76 530q0 557 323 557q308 0 308 -491q0 -60 -3 -84h-484q1 -170 22 -253q39 -159 157 -159q155 0 165 248h134q-8 -158 -73 -256q-79 -119 -226 -119q-323 0 -323 557zM221 631h340v41q0 293 -164 293t-176 -334zM269 1198l209 350h178l-281 -350h-106z" />
<glyph unicode="&#xea;" horiz-adv-x="780" d="M76 530q0 557 323 557q308 0 308 -491q0 -60 -3 -84h-484q1 -170 22 -253q39 -159 157 -159q155 0 165 248h134q-8 -158 -73 -256q-79 -119 -226 -119q-323 0 -323 557zM119 1198l197 350h178l197 -350h-107l-178 244l-180 -244h-107zM221 631h340v41q0 293 -164 293 t-176 -334z" />
<glyph unicode="&#xeb;" horiz-adv-x="780" d="M76 530q0 557 323 557q308 0 308 -491q0 -60 -3 -84h-484q1 -170 22 -253q39 -159 157 -159q155 0 165 248h134q-8 -158 -73 -256q-79 -119 -226 -119q-323 0 -323 557zM166 1264v186h160v-186h-160zM221 631h340v41q0 293 -164 293t-176 -334zM486 1264v186h160v-186 h-160z" />
<glyph unicode="&#xec;" horiz-adv-x="389" d="M-55 1548h178l209 -350h-106zM123 0v1063h143v-1063h-143z" />
<glyph unicode="&#xed;" horiz-adv-x="389" d="M58 1198l209 350h178l-281 -350h-106zM123 0v1063h143v-1063h-143z" />
<glyph unicode="&#xee;" horiz-adv-x="389" d="M-92 1198l197 350h178l197 -350h-107l-178 244l-180 -244h-107zM123 0v1063h143v-1063h-143z" />
<glyph unicode="&#xef;" horiz-adv-x="389" d="M-45 1264v186h160v-186h-160zM123 0v1063h143v-1063h-143zM275 1264v186h160v-186h-160z" />
<glyph unicode="&#xf0;" horiz-adv-x="782" d="M104 500q0 526 279 526q26 0 78 -12q-31 93 -64 137l-227 -90l-37 92l209 82q-48 74 -184 154l35 92q131 -44 266 -203l225 86l39 -88l-211 -80q168 -310 168 -696q0 -527 -283 -527q-293 0 -293 527zM238 500q0 -169 16 -246q34 -162 141 -162q154 0 154 408 q0 407 -154 407q-107 0 -141 -162q-16 -76 -16 -245z" />
<glyph unicode="&#xf1;" horiz-adv-x="846" d="M127 0v1063h141v-111q123 138 252 138q205 0 205 -275v-815h-141v768q0 93 -16 132q-26 65 -103 65q-113 0 -197 -140v-825h-141zM133 1257q45 187 199 187q35 0 99 -23.5t99 -23.5q73 0 97 69h88q-50 -192 -199 -192q-35 0 -99 23.5t-99 23.5q-68 0 -97 -64h-88z" />
<glyph unicode="&#xf2;" horiz-adv-x="782" d="M72 530q0 557 323 557q316 0 316 -557t-316 -557q-323 0 -323 557zM141 1548h178l209 -350h-106zM217 530q0 -177 19 -261q39 -169 157 -169q170 0 170 430q0 433 -170 433q-118 0 -157 -170q-19 -85 -19 -263z" />
<glyph unicode="&#xf3;" horiz-adv-x="782" d="M72 530q0 557 323 557q316 0 316 -557t-316 -557q-323 0 -323 557zM217 530q0 -177 19 -261q39 -169 157 -169q170 0 170 430q0 433 -170 433q-118 0 -157 -170q-19 -85 -19 -263zM254 1198l209 350h178l-281 -350h-106z" />
<glyph unicode="&#xf4;" horiz-adv-x="782" d="M72 530q0 557 323 557q316 0 316 -557t-316 -557q-323 0 -323 557zM104 1198l197 350h178l197 -350h-107l-178 244l-180 -244h-107zM217 530q0 -177 19 -261q39 -169 157 -169q170 0 170 430q0 433 -170 433q-118 0 -157 -170q-19 -85 -19 -263z" />
<glyph unicode="&#xf5;" horiz-adv-x="782" d="M72 530q0 557 323 557q316 0 316 -557t-316 -557q-323 0 -323 557zM100 1257q45 187 199 187q35 0 99 -23.5t99 -23.5q73 0 97 69h88q-50 -192 -199 -192q-35 0 -99 23.5t-99 23.5q-68 0 -97 -64h-88zM217 530q0 -177 19 -261q39 -169 157 -169q170 0 170 430 q0 433 -170 433q-118 0 -157 -170q-19 -85 -19 -263z" />
<glyph unicode="&#xf6;" horiz-adv-x="782" d="M72 530q0 557 323 557q316 0 316 -557t-316 -557q-323 0 -323 557zM151 1264v186h160v-186h-160zM217 530q0 -177 19 -261q39 -169 157 -169q170 0 170 430q0 433 -170 433q-118 0 -157 -170q-19 -85 -19 -263zM471 1264v186h160v-186h-160z" />
<glyph unicode="&#xf7;" horiz-adv-x="1706" d="M254 561v98h1198v-98h-1198zM748 258q0 44 31 75.5t75 31.5q45 0 76 -31t31 -76t-31 -75.5t-76 -30.5t-75.5 30.5t-30.5 75.5zM748 963q0 44 31 76t75 32t75.5 -32t31.5 -76q0 -45 -31 -76t-76 -31q-46 0 -76 30.5t-30 76.5z" />
<glyph unicode="&#xf8;" horiz-adv-x="782" d="M59 -199l109 283q-96 115 -96 446q0 557 323 557q82 0 137 -38l74 190l90 -43l-86 -217q101 -117 101 -449q0 -557 -328 -557q-87 0 -137 37l-94 -250zM213 530q0 -157 23 -266l249 660q-31 39 -90 39q-122 0 -162 -169q-20 -85 -20 -264zM295 141q27 -41 100 -41 q174 0 174 430q0 169 -24 275z" />
<glyph unicode="&#xf9;" horiz-adv-x="846" d="M123 246v817h141v-768q0 -93 16 -132q26 -65 103 -65q111 0 197 140v825h141v-1063h-141v111q-123 -138 -252 -138q-205 0 -205 273zM174 1548h178l209 -350h-106z" />
<glyph unicode="&#xfa;" horiz-adv-x="846" d="M123 246v817h141v-768q0 -93 16 -132q26 -65 103 -65q111 0 197 140v825h141v-1063h-141v111q-123 -138 -252 -138q-205 0 -205 273zM287 1198l209 350h178l-281 -350h-106z" />
<glyph unicode="&#xfb;" horiz-adv-x="846" d="M123 246v817h141v-768q0 -93 16 -132q26 -65 103 -65q111 0 197 140v825h141v-1063h-141v111q-123 -138 -252 -138q-205 0 -205 273zM137 1198l197 350h178l197 -350h-107l-178 244l-180 -244h-107z" />
<glyph unicode="&#xfc;" horiz-adv-x="846" d="M123 246v817h141v-768q0 -93 16 -132q26 -65 103 -65q111 0 197 140v825h141v-1063h-141v111q-123 -138 -252 -138q-205 0 -205 273zM184 1264v186h160v-186h-160zM504 1264v186h160v-186h-160z" />
<glyph unicode="&#xfd;" horiz-adv-x="711" d="M18 1063h148l184 -801l180 801h142l-248 -1059q-41 -175 -108 -257q-87 -105 -246 -105q-31 0 -45 2v131q12 -2 36 -2q182 0 228 239zM219 1198l209 350h178l-281 -350h-106z" />
<glyph unicode="&#xfe;" d="M127 -356v1837h143v-514q100 120 209 120q170 0 241 -207q48 -137 48 -348q0 -557 -291 -557q-108 0 -207 123v-454h-143zM270 240q88 -136 181 -136q170 0 170 441q0 424 -170 424q-94 0 -181 -135v-594z" />
<glyph unicode="&#xff;" horiz-adv-x="711" d="M18 1063h148l184 -801l180 801h142l-248 -1059q-41 -175 -108 -257q-87 -105 -246 -105q-31 0 -45 2v131q12 -2 36 -2q182 0 228 239zM116 1264v186h160v-186h-160zM436 1264v186h160v-186h-160z" />
<glyph unicode="&#x102;" horiz-adv-x="901" d="M27 0l321 1481h209l324 -1481h-160l-86 436h-373l-86 -436h-149zM167 1859h89q13 -145 193 -145t193 145h90q-21 -272 -283 -272q-264 0 -282 272zM295 575h309l-155 775z" />
<glyph unicode="&#x103;" d="M72 258q0 322 501 449v24q0 119 -21 163q-33 69 -138 69q-137 0 -172 -201l-138 22q51 301 308 301q170 0 242 -95q63 -83 63 -259v-485q0 -126 18 -246h-145l-17 96q-106 -106 -243 -106q-122 0 -191 74q-67 71 -67 194zM144 1509h89q13 -145 193 -145t193 145h90 q-21 -272 -283 -272q-264 0 -282 272zM213 256q0 -62 39.5 -102.5t101.5 -40.5q101 0 219 114v344q-146 -32 -239 -100q-121 -87 -121 -215z" />
<glyph unicode="&#x106;" horiz-adv-x="950" d="M84 721q0 790 424 790q187 0 284 -144q82 -124 82 -320h-147q-16 331 -221 331q-137 0 -202 -150q-62 -145 -62 -493q0 -259 36 -390q64 -239 252 -239q222 0 222 379h137v-32q0 -211 -86 -336q-99 -146 -301 -146q-418 0 -418 750zM371 1620l209 350h178l-281 -350h-106 z" />
<glyph unicode="&#x107;" horiz-adv-x="764" d="M76 530q0 557 323 557q136 0 214 -99q69 -89 75 -230h-131q-10 207 -160 207q-118 0 -158 -171q-20 -88 -20 -264q0 -179 20 -263q39 -167 160 -167q155 0 165 248h130q-1 -155 -68 -257q-79 -118 -227 -118q-323 0 -323 557zM266 1198l209 350h178l-281 -350h-106z" />
<glyph unicode="&#x10c;" horiz-adv-x="950" d="M84 721q0 790 424 790q187 0 284 -144q82 -124 82 -320h-147q-16 331 -221 331q-137 0 -202 -150q-62 -145 -62 -493q0 -259 36 -390q64 -239 252 -239q222 0 222 379h137v-32q0 -211 -86 -336q-99 -146 -301 -146q-418 0 -418 750zM221 1970h107l180 -243l178 243h107 l-197 -350h-178z" />
<glyph unicode="&#x10d;" horiz-adv-x="764" d="M76 530q0 557 323 557q136 0 214 -99q69 -89 75 -230h-131q-10 207 -160 207q-118 0 -158 -171q-20 -88 -20 -264q0 -179 20 -263q39 -167 160 -167q155 0 165 248h130q-1 -155 -68 -257q-79 -118 -227 -118q-323 0 -323 557zM116 1548h107l180 -243l178 243h107 l-197 -350h-178z" />
<glyph unicode="&#x110;" horiz-adv-x="1004" d="M40 723v111h112v647h274q295 0 409 -238q80 -168 80 -500q0 -335 -79 -503q-114 -240 -410 -240h-274v723h-112zM303 140q58 -5 82 -5q210 0 295.5 133t85.5 480q0 341 -85 473.5t-294 132.5q-26 0 -84 -5v-515h207v-111h-207v-583z" />
<glyph unicode="&#x111;" horiz-adv-x="848" d="M76 532q0 210 47 347q71 208 239 208q109 0 211 -120v274h-194v86h194v154h142v-154h125v-86h-125v-1241h-142v98q-98 -123 -208 -123q-289 0 -289 557zM223 545q0 -441 170 -441q97 0 180 136v594q-86 135 -180 135q-170 0 -170 -424z" />
<glyph unicode="&#x11e;" horiz-adv-x="981" d="M84 721q0 790 424 790q187 0 284 -144q82 -124 82 -320h-147q-16 331 -221 331q-138 0 -201 -149q-61 -144 -61 -504q0 -250 36 -382q64 -237 244 -237q112 0 170 88q49 75 49 193v174h-215v133h359v-694h-107l-16 86q-97 -115 -258 -115q-422 0 -422 750zM210 1931h89 q13 -145 193 -145t193 145h90q-21 -272 -283 -272q-264 0 -282 272z" />
<glyph unicode="&#x11f;" horiz-adv-x="760" d="M27 -106q0 114 151 208q-106 56 -106 136q0 84 121 155q-93 95 -93 309q0 379 273 379q137 0 207 -96q74 96 180 96v-132q-28 5 -41 5q-52 0 -103 -47q31 -107 31 -229q0 -354 -270 -354q-16 0 -47 5t-44 5q-26 0 -52 -18q-29 -19 -29 -44q0 -48 51 -67q25 -10 121 -26 q247 -44 322 -124q51 -56 51 -147q0 -133 -126 -202q-101 -56 -245 -56q-143 0 -235 50q-117 63 -117 194zM99 1509h89q13 -145 193 -145t193 145h90q-21 -272 -283 -272q-264 0 -282 272zM166 -96q0 -137 219 -137q233 0 233 133q0 126 -307 161q-145 -56 -145 -157z M227 702q0 -114 21 -170q34 -90 129 -90q143 0 143 260q0 263 -143 263q-95 0 -129 -91q-21 -56 -21 -172z" />
<glyph unicode="&#x128;" horiz-adv-x="428" d="M-72 1679q45 187 199 187q35 0 99 -23.5t99 -23.5q73 0 97 69h88q-50 -192 -199 -192q-35 0 -99 23.5t-99 23.5q-68 0 -97 -64h-88zM137 0v1481h152v-1481h-152z" />
<glyph unicode="&#x129;" horiz-adv-x="389" d="M-80 1257q45 187 199 187q35 0 99 -23.5t99 -23.5q73 0 97 69h88q-50 -192 -199 -192q-35 0 -99 23.5t-99 23.5q-68 0 -97 -64h-88zM123 0v1063h143v-1063h-143z" />
<glyph unicode="&#x130;" horiz-adv-x="428" d="M127 1675v207h176v-207h-176zM137 0v1481h152v-1481h-152z" />
<glyph unicode="&#x131;" horiz-adv-x="389" d="M123 0v1063h143v-1063h-143z" />
<glyph unicode="&#x141;" horiz-adv-x="793" d="M10 551v127l142 100v703h151v-621l234 162v-129l-234 -164v-588h465v-141h-616v647z" />
<glyph unicode="&#x142;" horiz-adv-x="408" d="M10 584v100l123 88v709h141v-633l123 86v-103l-123 -86v-745h-141v668z" />
<glyph unicode="&#x152;" horiz-adv-x="1466" d="M84 741q0 770 414 770q176 0 258 -174v144h657v-135h-520v-512h383v-136h-383v-561h537v-137h-674v141q-86 -170 -264 -170q-408 0 -408 770zM244 776q0 -360 59 -509q61 -156 189 -156q247 0 247 630q0 631 -247 631q-248 0 -248 -596z" />
<glyph unicode="&#x153;" horiz-adv-x="1280" d="M76 530q0 557 323 557q156 0 246 -151q88 151 252 151q307 0 307 -491q0 -54 -2 -84h-485q0 -9 -1 -28t-1 -29q0 -355 182 -355q156 0 166 248h133q-19 -375 -309 -375q-173 0 -240 150q-87 -150 -248 -150q-323 0 -323 557zM219 530q0 -179 20 -263q39 -167 160 -167 q174 0 174 430q0 433 -174 433q-121 0 -160 -169q-20 -84 -20 -264zM719 633h342v41q0 291 -166 291q-176 0 -176 -332z" />
<glyph unicode="&#x15e;" horiz-adv-x="891" d="M74 393h143q16 -284 236 -284q103 0 162 73q55 67 55 172q0 124 -105 235q-45 48 -220 182q-143 109 -193 191q-56 92 -56 214q0 142 93 237.5t235 95.5q175 0 270 -116q86 -105 92 -285h-140q-20 274 -216 274q-92 0 -145.5 -56.5t-53.5 -149.5q0 -124 151 -248 l280 -224q151 -151 151 -344q0 -171 -95 -278q-100 -111 -269 -111q-186 0 -284 121q-88 110 -91 301zM196 -336q164 -37 246 -37q121 0 121 84q0 100 -136 100q-22 0 -53 -3v192h72v-106q248 0 248 -177q0 -182 -246 -182q-94 0 -252 41v88z" />
<glyph unicode="&#x15f;" horiz-adv-x="770" d="M74 258l135 31q12 -83 56 -136q51 -61 130 -61q71 0 113.5 46t42.5 118q0 110 -192 240q-124 84 -171 133q-84 89 -84 192q0 115 75 190.5t190 75.5q234 0 299 -253l-121 -37q-44 174 -172 174q-59 0 -97 -36t-38 -95q0 -91 187 -218q142 -96 184 -142q79 -88 79 -214 q0 -137 -84.5 -214t-222.5 -77q-126 0 -209 80q-80 76 -100 203zM135 -336q164 -37 246 -37q121 0 121 84q0 100 -136 100q-22 0 -53 -3v192h72v-106q248 0 248 -177q0 -182 -246 -182q-94 0 -252 41v88z" />
<glyph unicode="&#x160;" horiz-adv-x="891" d="M74 393h143q16 -284 236 -284q103 0 162 73q55 67 55 172q0 124 -105 235q-45 48 -220 182q-143 109 -193 191q-56 92 -56 214q0 142 93 237.5t235 95.5q175 0 270 -116q86 -105 92 -285h-140q-20 274 -216 274q-92 0 -145.5 -56.5t-53.5 -149.5q0 -124 151 -248 l280 -224q151 -151 151 -344q0 -171 -95 -278q-100 -111 -269 -111q-186 0 -284 121q-88 110 -91 301zM159 1970h107l180 -243l178 243h107l-197 -350h-178z" />
<glyph unicode="&#x161;" horiz-adv-x="770" d="M74 258l135 31q12 -83 56 -136q51 -61 130 -61q71 0 113.5 46t42.5 118q0 110 -192 240q-124 84 -171 133q-84 89 -84 192q0 115 75 190.5t190 75.5q234 0 299 -253l-121 -37q-44 174 -172 174q-59 0 -97 -36t-38 -95q0 -91 187 -218q142 -96 184 -142q79 -88 79 -214 q0 -137 -84.5 -214t-222.5 -77q-126 0 -209 80q-80 76 -100 203zM98 1548h107l180 -243l178 243h107l-197 -350h-178z" />
<glyph unicode="&#x168;" horiz-adv-x="1004" d="M129 518v963h152v-949q0 -271 48 -347q49 -79 173 -79q121 0 171 81q48 77 48 345v949h151v-963q0 -215 -21 -297q-40 -158 -180 -217q-76 -33 -169 -33q-95 0 -171 33q-141 60 -181 217q-21 81 -21 297zM213 1679q45 187 199 187q35 0 99 -23.5t99 -23.5q73 0 97 69h88 q-50 -192 -199 -192q-35 0 -99 23.5t-99 23.5q-68 0 -97 -64h-88z" />
<glyph unicode="&#x169;" horiz-adv-x="846" d="M123 246v817h141v-768q0 -93 16 -132q26 -65 103 -65q111 0 197 140v825h141v-1063h-141v111q-123 -138 -252 -138q-205 0 -205 273zM140 1257q45 187 199 187q35 0 99 -23.5t99 -23.5q73 0 97 69h88q-50 -192 -199 -192q-35 0 -99 23.5t-99 23.5q-68 0 -97 -64h-88z" />
<glyph unicode="&#x178;" horiz-adv-x="772" d="M-23 1481h158l254 -674l248 674h156l-328 -844v-637h-156v637zM147 1686v186h160v-186h-160zM467 1686v186h160v-186h-160z" />
<glyph unicode="&#x17d;" horiz-adv-x="756" d="M29 0v115l536 1247h-481v119h649v-103l-540 -1243h540v-135h-704zM92 1970h107l180 -243l178 243h107l-197 -350h-178z" />
<glyph unicode="&#x17e;" horiz-adv-x="680" d="M49 0v109l424 833h-385v121h541v-100l-428 -844h428v-119h-580zM53 1548h107l180 -243l178 243h107l-197 -350h-178z" />
<glyph unicode="&#x192;" horiz-adv-x="870" d="M39 -217q42 -12 78 -12q61 0 94 41q62 77 107 475q28 248 40 501h-174v121h187q9 242 54 369q76 215 261 215q45 0 111 -8v-121q-52 16 -101 16q-91 0 -133 -91q-41 -86 -57 -380h178v-121h-190q-17 -293 -34 -461q-32 -304 -83 -451q-79 -226 -246 -226q-44 0 -92 12 v121z" />
<glyph unicode="&#x1a0;" horiz-adv-x="985" d="M84 741q0 768 408 768q409 0 409 -768q0 -770 -409 -770q-408 0 -408 770zM244 776q0 -360 59 -509q61 -156 189 -156q247 0 247 630q0 631 -247 631q-248 0 -248 -596zM769 1164v113l69 165h-68v169h150v-178z" />
<glyph unicode="&#x1a1;" horiz-adv-x="782" d="M72 530q0 557 323 557q316 0 316 -557t-316 -557q-323 0 -323 557zM217 530q0 -177 19 -261q39 -169 157 -169q170 0 170 430q0 433 -170 433q-118 0 -157 -170q-19 -85 -19 -263zM602 811v113l69 165h-68v169h150v-178z" />
<glyph unicode="&#x1af;" horiz-adv-x="1027" d="M129 518v963h152v-949q0 -271 48 -347q49 -79 173 -79q121 0 171 81q48 77 48 345v949h151v-963q0 -215 -21 -297q-40 -158 -180 -217q-76 -33 -169 -33q-95 0 -171 33q-141 60 -181 217q-21 81 -21 297zM849 1164v113l69 165h-68v169h150v-178z" />
<glyph unicode="&#x1b0;" horiz-adv-x="878" d="M123 246v817h141v-768q0 -93 16 -132q26 -65 103 -65q111 0 197 140v825h141v-1063h-141v111q-123 -138 -252 -138q-205 0 -205 273zM708 811v113l69 165h-68v169h150v-178z" />
<glyph unicode="&#x2c6;" horiz-adv-x="1024" d="M225 1198l197 350h178l197 -350h-107l-178 244l-180 -244h-107z" />
<glyph unicode="&#x2c7;" horiz-adv-x="1024" d="M225 1548h107l180 -243l178 243h107l-197 -350h-178z" />
<glyph unicode="&#x2d8;" horiz-adv-x="1024" d="M229 1509h89q13 -145 193 -145t193 145h90q-21 -272 -283 -272q-264 0 -282 272z" />
<glyph unicode="&#x2d9;" horiz-adv-x="1024" d="M424 1253v207h176v-207h-176z" />
<glyph unicode="&#x2da;" horiz-adv-x="1024" d="M264 1427q0 105 71.5 176.5t176.5 71.5t176.5 -71.5t71.5 -176.5t-71.5 -176t-176.5 -71t-176.5 71t-71.5 176zM371 1427q0 -60 40.5 -101.5t100.5 -41.5t101.5 41.5t41.5 101.5t-41.5 102t-101.5 42q-61 0 -101 -41.5t-40 -102.5z" />
<glyph unicode="&#x2db;" horiz-adv-x="1024" d="M322 -270q0 121 186 270h74q-138 -124 -138 -223q0 -84 107 -84q13 0 37 1t35 1v-129h-80q-221 0 -221 164z" />
<glyph unicode="&#x2dc;" horiz-adv-x="1024" d="M221 1257q45 187 199 187q35 0 99 -23.5t99 -23.5q73 0 97 69h88q-50 -192 -199 -192q-35 0 -99 23.5t-99 23.5q-68 0 -97 -64h-88z" />
<glyph unicode="&#x2dd;" horiz-adv-x="1024" d="M322 1198l147 350h158l-221 -350h-84zM580 1198l168 350h155l-239 -350h-84z" />
<glyph unicode="&#x394;" horiz-adv-x="1346" d="M-10 0l590 1473h186l590 -1473h-1366zM207 139h932l-467 1186z" />
<glyph unicode="&#x3a9;" horiz-adv-x="1579" d="M117 0v139h344q-340 261 -340 645q0 310 178 514q187 215 492 215q304 0 491 -214q178 -204 178 -513q0 -383 -342 -647h344v-139h-581v127q419 251 419 668q0 246 -129 407q-140 174 -380 174q-241 0 -382 -173q-130 -160 -130 -406q0 -422 419 -670v-127h-581z" />
<glyph unicode="&#x3bc;" horiz-adv-x="1110" d="M-111 -426l316 1491h139l-125 -592q-16 -76 -16 -139q0 -244 225 -244q257 0 348 418l121 557h139l-164 -770q-22 -103 -22 -133q0 -74 104 -64l-20 -110q-42 -11 -86 -11q-137 0 -137 160q-88 -162 -299 -162q-189 0 -269 156l-114 -557h-140z" />
<glyph unicode="&#x3c0;" horiz-adv-x="1171" d="M-4 813q25 145 90 198.5t213 53.5h848l-27 -121h-182l-115 -541q-30 -141 -30 -188q0 -106 110 -106q49 0 92 9l-26 -118q-56 -16 -101 -16q-213 0 -213 202q0 86 56 351l86 407h-365l-199 -944h-139l199 944h-39q-106 0 -127 -131h-131z" />
<glyph unicode="&#x1ea0;" horiz-adv-x="901" d="M27 0l321 1481h209l324 -1481h-160l-86 436h-373l-86 -436h-149zM295 575h309l-155 775zM372 -141h162v-182h-162v182z" />
<glyph unicode="&#x1ea1;" d="M72 258q0 322 501 449v24q0 119 -21 163q-33 69 -138 69q-137 0 -172 -201l-138 22q51 301 308 301q170 0 242 -95q63 -83 63 -259v-485q0 -126 18 -246h-145l-17 96q-106 -106 -243 -106q-122 0 -191 74q-67 71 -67 194zM213 256q0 -62 39.5 -102.5t101.5 -40.5 q101 0 219 114v344q-146 -32 -239 -100q-121 -87 -121 -215zM344 -141h162v-182h-162v182z" />
<glyph unicode="&#x1ea2;" horiz-adv-x="901" d="M27 0l321 1481h209l324 -1481h-160l-86 436h-373l-86 -436h-149zM295 575h309l-155 775zM312 1867q4 54 46 93.5t96 39.5q70 0 111.5 -49.5t41.5 -120.5q0 -59 -52.5 -129.5t-52.5 -121.5v-30h-101v14q0 77 47.5 148.5t47.5 117.5q0 73 -48 73q-50 0 -55 -74z" />
<glyph unicode="&#x1ea3;" d="M72 258q0 322 501 449v24q0 119 -21 163q-33 69 -138 69q-137 0 -172 -201l-138 22q51 301 308 301q170 0 242 -95q63 -83 63 -259v-485q0 -126 18 -246h-145l-17 96q-106 -106 -243 -106q-122 0 -191 74q-67 71 -67 194zM213 256q0 -62 39.5 -102.5t101.5 -40.5 q101 0 219 114v344q-146 -32 -239 -100q-121 -87 -121 -215zM277 1499q4 54 46 93.5t96 39.5q70 0 111.5 -49.5t41.5 -120.5q0 -59 -52.5 -129.5t-52.5 -121.5v-30h-101v14q0 77 47.5 148.5t47.5 117.5q0 73 -48 73q-50 0 -55 -74z" />
<glyph unicode="&#x1ea4;" horiz-adv-x="901" d="M27 0l321 1481h209l324 -1481h-160l-86 436h-373l-86 -436h-149zM164 1550l197 350h178l197 -350h-107l-178 244l-180 -244h-107zM225 1940l209 350h178l-281 -350h-106zM295 575h309l-155 775z" />
<glyph unicode="&#x1ea5;" d="M72 258q0 322 501 449v24q0 119 -21 163q-33 69 -138 69q-137 0 -172 -201l-138 22q51 301 308 301q170 0 242 -95q63 -83 63 -259v-485q0 -126 18 -246h-145l-17 96q-106 -106 -243 -106q-122 0 -191 74q-67 71 -67 194zM140 1198l197 350h178l197 -350h-107l-178 244 l-180 -244h-107zM201 1588l209 350h178l-281 -350h-106zM213 256q0 -62 39.5 -102.5t101.5 -40.5q101 0 219 114v344q-146 -32 -239 -100q-121 -87 -121 -215z" />
<glyph unicode="&#x1ea6;" horiz-adv-x="901" d="M27 0l321 1481h209l324 -1481h-160l-86 436h-373l-86 -436h-149zM164 1550l197 350h178l197 -350h-107l-178 244l-180 -244h-107zM288 2290h178l209 -350h-106zM295 575h309l-155 775z" />
<glyph unicode="&#x1ea7;" d="M72 258q0 322 501 449v24q0 119 -21 163q-33 69 -138 69q-137 0 -172 -201l-138 22q51 301 308 301q170 0 242 -95q63 -83 63 -259v-485q0 -126 18 -246h-145l-17 96q-106 -106 -243 -106q-122 0 -191 74q-67 71 -67 194zM140 1198l197 350h178l197 -350h-107l-178 244 l-180 -244h-107zM213 256q0 -62 39.5 -102.5t101.5 -40.5q101 0 219 114v344q-146 -32 -239 -100q-121 -87 -121 -215zM264 1938h178l209 -350h-106z" />
<glyph unicode="&#x1ea8;" horiz-adv-x="901" d="M27 0l321 1481h209l324 -1481h-160l-86 436h-373l-86 -436h-149zM164 1550l197 350h178l197 -350h-107l-178 244l-180 -244h-107zM295 575h309l-155 775zM516 2191q4 54 46 93.5t96 39.5q70 0 111.5 -49.5t41.5 -120.5q0 -59 -52.5 -129.5t-52.5 -121.5v-30h-101v14 q0 77 47.5 148.5t47.5 117.5q0 73 -48 73q-50 0 -55 -74z" />
<glyph unicode="&#x1ea9;" d="M72 258q0 322 501 449v24q0 119 -21 163q-33 69 -138 69q-137 0 -172 -201l-138 22q51 301 308 301q170 0 242 -95q63 -83 63 -259v-485q0 -126 18 -246h-145l-17 96q-106 -106 -243 -106q-122 0 -191 74q-67 71 -67 194zM140 1198l197 350h178l197 -350h-107l-178 244 l-180 -244h-107zM213 256q0 -62 39.5 -102.5t101.5 -40.5q101 0 219 114v344q-146 -32 -239 -100q-121 -87 -121 -215zM493 1839q4 54 46 93.5t96 39.5q70 0 111.5 -49.5t41.5 -120.5q0 -59 -52.5 -129.5t-52.5 -121.5v-30h-101v14q0 77 47.5 148.5t47.5 117.5q0 73 -48 73 q-50 0 -55 -74z" />
<glyph unicode="&#x1eaa;" horiz-adv-x="901" d="M27 0l321 1481h209l324 -1481h-160l-86 436h-373l-86 -436h-149zM164 1550l197 350h178l197 -350h-107l-178 244l-180 -244h-107zM225 1969q45 187 199 187q35 0 99 -23.5t99 -23.5q73 0 97 69h88q-50 -192 -199 -192q-35 0 -99 23.5t-99 23.5q-68 0 -97 -64h-88z M295 575h309l-155 775z" />
<glyph unicode="&#x1eab;" d="M72 258q0 322 501 449v24q0 119 -21 163q-33 69 -138 69q-137 0 -172 -201l-138 22q51 301 308 301q170 0 242 -95q63 -83 63 -259v-485q0 -126 18 -246h-145l-17 96q-106 -106 -243 -106q-122 0 -191 74q-67 71 -67 194zM140 1198l197 350h178l197 -350h-107l-178 244 l-180 -244h-107zM201 1617q45 187 199 187q35 0 99 -23.5t99 -23.5q73 0 97 69h88q-50 -192 -199 -192q-35 0 -99 23.5t-99 23.5q-68 0 -97 -64h-88zM213 256q0 -62 39.5 -102.5t101.5 -40.5q101 0 219 114v344q-146 -32 -239 -100q-121 -87 -121 -215z" />
<glyph unicode="&#x1eac;" horiz-adv-x="901" d="M27 0l321 1481h209l324 -1481h-160l-86 436h-373l-86 -436h-149zM164 1550l197 350h178l197 -350h-107l-178 244l-180 -244h-107zM295 575h309l-155 775zM372 -141h162v-182h-162v182z" />
<glyph unicode="&#x1ead;" d="M72 258q0 322 501 449v24q0 119 -21 163q-33 69 -138 69q-137 0 -172 -201l-138 22q51 301 308 301q170 0 242 -95q63 -83 63 -259v-485q0 -126 18 -246h-145l-17 96q-106 -106 -243 -106q-122 0 -191 74q-67 71 -67 194zM140 1198l197 350h178l197 -350h-107l-178 244 l-180 -244h-107zM213 256q0 -62 39.5 -102.5t101.5 -40.5q101 0 219 114v344q-146 -32 -239 -100q-121 -87 -121 -215zM344 -141h162v-182h-162v182z" />
<glyph unicode="&#x1eae;" horiz-adv-x="901" d="M27 0l321 1481h209l324 -1481h-160l-86 436h-373l-86 -436h-149zM167 1859h89q13 -145 193 -145t193 145h90q-21 -272 -283 -272q-264 0 -282 272zM294 1938l209 350h178l-281 -350h-106zM295 575h309l-155 775z" />
<glyph unicode="&#x1eaf;" d="M72 258q0 322 501 449v24q0 119 -21 163q-33 69 -138 69q-137 0 -172 -201l-138 22q51 301 308 301q170 0 242 -95q63 -83 63 -259v-485q0 -126 18 -246h-145l-17 96q-106 -106 -243 -106q-122 0 -191 74q-67 71 -67 194zM144 1509h89q13 -145 193 -145t193 145h90 q-21 -272 -283 -272q-264 0 -282 272zM213 256q0 -62 39.5 -102.5t101.5 -40.5q101 0 219 114v344q-146 -32 -239 -100q-121 -87 -121 -215zM271 1588l209 350h178l-281 -350h-106z" />
<glyph unicode="&#x1eb0;" horiz-adv-x="901" d="M27 0l321 1481h209l324 -1481h-160l-86 436h-373l-86 -436h-149zM167 1859h89q13 -145 193 -145t193 145h90q-21 -272 -283 -272q-264 0 -282 272zM217 2288h178l209 -350h-106zM295 575h309l-155 775z" />
<glyph unicode="&#x1eb1;" d="M72 258q0 322 501 449v24q0 119 -21 163q-33 69 -138 69q-137 0 -172 -201l-138 22q51 301 308 301q170 0 242 -95q63 -83 63 -259v-485q0 -126 18 -246h-145l-17 96q-106 -106 -243 -106q-122 0 -191 74q-67 71 -67 194zM144 1509h89q13 -145 193 -145t193 145h90 q-21 -272 -283 -272q-264 0 -282 272zM194 1938h178l209 -350h-106zM213 256q0 -62 39.5 -102.5t101.5 -40.5q101 0 219 114v344q-146 -32 -239 -100q-121 -87 -121 -215z" />
<glyph unicode="&#x1eb2;" horiz-adv-x="901" d="M27 0l321 1481h209l324 -1481h-160l-86 436h-373l-86 -436h-149zM167 1859h89q13 -145 193 -145t193 145h90q-21 -272 -283 -272q-264 0 -282 272zM295 575h309l-155 775zM302 2189q4 54 46 93.5t96 39.5q70 0 111.5 -49.5t41.5 -120.5q0 -59 -52.5 -129.5t-52.5 -121.5 v-30h-101v14q0 77 47.5 148.5t47.5 117.5q0 73 -48 73q-50 0 -55 -74z" />
<glyph unicode="&#x1eb3;" d="M72 258q0 322 501 449v24q0 119 -21 163q-33 69 -138 69q-137 0 -172 -201l-138 22q51 301 308 301q170 0 242 -95q63 -83 63 -259v-485q0 -126 18 -246h-145l-17 96q-106 -106 -243 -106q-122 0 -191 74q-67 71 -67 194zM144 1509h89q13 -145 193 -145t193 145h90 q-21 -272 -283 -272q-264 0 -282 272zM213 256q0 -62 39.5 -102.5t101.5 -40.5q101 0 219 114v344q-146 -32 -239 -100q-121 -87 -121 -215zM279 1839q4 54 46 93.5t96 39.5q70 0 111.5 -49.5t41.5 -120.5q0 -59 -52.5 -129.5t-52.5 -121.5v-30h-101v14q0 77 47.5 148.5 t47.5 117.5q0 73 -48 73q-50 0 -55 -74z" />
<glyph unicode="&#x1eb4;" horiz-adv-x="901" d="M27 0l321 1481h209l324 -1481h-160l-86 436h-373l-86 -436h-149zM167 1859h89q13 -145 193 -145t193 145h90q-21 -272 -283 -272q-264 0 -282 272zM224 1967q45 187 199 187q35 0 99 -23.5t99 -23.5q73 0 97 69h88q-50 -192 -199 -192q-35 0 -99 23.5t-99 23.5 q-68 0 -97 -64h-88zM295 575h309l-155 775z" />
<glyph unicode="&#x1eb5;" d="M72 258q0 322 501 449v24q0 119 -21 163q-33 69 -138 69q-137 0 -172 -201l-138 22q51 301 308 301q170 0 242 -95q63 -83 63 -259v-485q0 -126 18 -246h-145l-17 96q-106 -106 -243 -106q-122 0 -191 74q-67 71 -67 194zM144 1509h89q13 -145 193 -145t193 145h90 q-21 -272 -283 -272q-264 0 -282 272zM201 1617q45 187 199 187q35 0 99 -23.5t99 -23.5q73 0 97 69h88q-50 -192 -199 -192q-35 0 -99 23.5t-99 23.5q-68 0 -97 -64h-88zM213 256q0 -62 39.5 -102.5t101.5 -40.5q101 0 219 114v344q-146 -32 -239 -100q-121 -87 -121 -215z " />
<glyph unicode="&#x1eb6;" horiz-adv-x="901" d="M27 0l321 1481h209l324 -1481h-160l-86 436h-373l-86 -436h-149zM167 1859h89q13 -145 193 -145t193 145h90q-21 -272 -283 -272q-264 0 -282 272zM295 575h309l-155 775zM372 -141h162v-182h-162v182z" />
<glyph unicode="&#x1eb7;" d="M72 258q0 322 501 449v24q0 119 -21 163q-33 69 -138 69q-137 0 -172 -201l-138 22q51 301 308 301q170 0 242 -95q63 -83 63 -259v-485q0 -126 18 -246h-145l-17 96q-106 -106 -243 -106q-122 0 -191 74q-67 71 -67 194zM144 1509h89q13 -145 193 -145t193 145h90 q-21 -272 -283 -272q-264 0 -282 272zM213 256q0 -62 39.5 -102.5t101.5 -40.5q101 0 219 114v344q-146 -32 -239 -100q-121 -87 -121 -215zM344 -141h162v-182h-162v182z" />
<glyph unicode="&#x1eb8;" horiz-adv-x="854" d="M133 0v1481h666v-138h-514v-509h377v-136h-377v-561h532v-137h-684zM382 -141h162v-182h-162v182z" />
<glyph unicode="&#x1eb9;" horiz-adv-x="780" d="M76 530q0 557 323 557q308 0 308 -491q0 -60 -3 -84h-484q1 -170 22 -253q39 -159 157 -159q155 0 165 248h134q-8 -158 -73 -256q-79 -119 -226 -119q-323 0 -323 557zM221 631h340v41q0 293 -164 293t-176 -334zM326 -141h162v-182h-162v182z" />
<glyph unicode="&#x1eba;" horiz-adv-x="854" d="M133 0v1481h666v-138h-514v-509h377v-136h-377v-561h532v-137h-684zM332 1867q4 54 46 93.5t96 39.5q70 0 111.5 -49.5t41.5 -120.5q0 -59 -52.5 -129.5t-52.5 -121.5v-30h-101v14q0 77 47.5 148.5t47.5 117.5q0 73 -48 73q-50 0 -55 -74z" />
<glyph unicode="&#x1ebb;" horiz-adv-x="780" d="M76 530q0 557 323 557q308 0 308 -491q0 -60 -3 -84h-484q1 -170 22 -253q39 -159 157 -159q155 0 165 248h134q-8 -158 -73 -256q-79 -119 -226 -119q-323 0 -323 557zM221 631h340v41q0 293 -164 293t-176 -334zM257 1499q4 54 46 93.5t96 39.5q70 0 111.5 -49.5 t41.5 -120.5q0 -59 -52.5 -129.5t-52.5 -121.5v-30h-101v14q0 77 47.5 148.5t47.5 117.5q0 73 -48 73q-50 0 -55 -74z" />
<glyph unicode="&#x1ebc;" horiz-adv-x="854" d="M133 0v1481h666v-138h-514v-509h377v-136h-377v-561h532v-137h-684zM178 1679q45 187 199 187q35 0 99 -23.5t99 -23.5q73 0 97 69h88q-50 -192 -199 -192q-35 0 -99 23.5t-99 23.5q-68 0 -97 -64h-88z" />
<glyph unicode="&#x1ebd;" horiz-adv-x="780" d="M76 530q0 557 323 557q308 0 308 -491q0 -60 -3 -84h-484q1 -170 22 -253q39 -159 157 -159q155 0 165 248h134q-8 -158 -73 -256q-79 -119 -226 -119q-323 0 -323 557zM107 1257q45 187 199 187q35 0 99 -23.5t99 -23.5q73 0 97 69h88q-50 -192 -199 -192 q-35 0 -99 23.5t-99 23.5q-68 0 -97 -64h-88zM221 631h340v41q0 293 -164 293t-176 -334z" />
<glyph unicode="&#x1ebe;" horiz-adv-x="854" d="M133 0v1481h666v-138h-514v-509h377v-136h-377v-561h532v-137h-684zM174 1550l197 350h178l197 -350h-107l-178 244l-180 -244h-107zM235 1940l209 350h178l-281 -350h-106z" />
<glyph unicode="&#x1ebf;" horiz-adv-x="780" d="M76 530q0 557 323 557q308 0 308 -491q0 -60 -3 -84h-484q1 -170 22 -253q39 -159 157 -159q155 0 165 248h134q-8 -158 -73 -256q-79 -119 -226 -119q-323 0 -323 557zM119 1198l197 350h178l197 -350h-107l-178 244l-180 -244h-107zM180 1588l209 350h178l-281 -350 h-106zM221 631h340v41q0 293 -164 293t-176 -334z" />
<glyph unicode="&#x1ec0;" horiz-adv-x="854" d="M133 0v1481h666v-138h-514v-509h377v-136h-377v-561h532v-137h-684zM174 1550l197 350h178l197 -350h-107l-178 244l-180 -244h-107zM298 2290h178l209 -350h-106z" />
<glyph unicode="&#x1ec1;" horiz-adv-x="780" d="M76 530q0 557 323 557q308 0 308 -491q0 -60 -3 -84h-484q1 -170 22 -253q39 -159 157 -159q155 0 165 248h134q-8 -158 -73 -256q-79 -119 -226 -119q-323 0 -323 557zM119 1198l197 350h178l197 -350h-107l-178 244l-180 -244h-107zM221 631h340v41q0 293 -164 293 t-176 -334zM243 1938h178l209 -350h-106z" />
<glyph unicode="&#x1ec2;" horiz-adv-x="854" d="M133 0v1481h666v-138h-514v-509h377v-136h-377v-561h532v-137h-684zM174 1550l197 350h178l197 -350h-107l-178 244l-180 -244h-107zM526 2191q4 54 46 93.5t96 39.5q70 0 111.5 -49.5t41.5 -120.5q0 -59 -52.5 -129.5t-52.5 -121.5v-30h-101v14q0 77 47.5 148.5 t47.5 117.5q0 73 -48 73q-50 0 -55 -74z" />
<glyph unicode="&#x1ec3;" horiz-adv-x="780" d="M76 530q0 557 323 557q308 0 308 -491q0 -60 -3 -84h-484q1 -170 22 -253q39 -159 157 -159q155 0 165 248h134q-8 -158 -73 -256q-79 -119 -226 -119q-323 0 -323 557zM119 1198l197 350h178l197 -350h-107l-178 244l-180 -244h-107zM221 631h340v41q0 293 -164 293 t-176 -334zM472 1839q4 54 46 93.5t96 39.5q70 0 111.5 -49.5t41.5 -120.5q0 -59 -52.5 -129.5t-52.5 -121.5v-30h-101v14q0 77 47.5 148.5t47.5 117.5q0 73 -48 73q-50 0 -55 -74z" />
<glyph unicode="&#x1ec4;" horiz-adv-x="854" d="M133 0v1481h666v-138h-514v-509h377v-136h-377v-561h532v-137h-684zM174 1550l197 350h178l197 -350h-107l-178 244l-180 -244h-107zM235 1969q45 187 199 187q35 0 99 -23.5t99 -23.5q73 0 97 69h88q-50 -192 -199 -192q-35 0 -99 23.5t-99 23.5q-68 0 -97 -64h-88z" />
<glyph unicode="&#x1ec5;" horiz-adv-x="780" d="M76 530q0 557 323 557q308 0 308 -491q0 -60 -3 -84h-484q1 -170 22 -253q39 -159 157 -159q155 0 165 248h134q-8 -158 -73 -256q-79 -119 -226 -119q-323 0 -323 557zM119 1198l197 350h178l197 -350h-107l-178 244l-180 -244h-107zM180 1617q45 187 199 187 q35 0 99 -23.5t99 -23.5q73 0 97 69h88q-50 -192 -199 -192q-35 0 -99 23.5t-99 23.5q-68 0 -97 -64h-88zM221 631h340v41q0 293 -164 293t-176 -334z" />
<glyph unicode="&#x1ec6;" horiz-adv-x="854" d="M133 0v1481h666v-138h-514v-509h377v-136h-377v-561h532v-137h-684zM174 1550l197 350h178l197 -350h-107l-178 244l-180 -244h-107zM382 -141h162v-182h-162v182z" />
<glyph unicode="&#x1ec7;" horiz-adv-x="780" d="M76 530q0 557 323 557q308 0 308 -491q0 -60 -3 -84h-484q1 -170 22 -253q39 -159 157 -159q155 0 165 248h134q-8 -158 -73 -256q-79 -119 -226 -119q-323 0 -323 557zM119 1198l197 350h178l197 -350h-107l-178 244l-180 -244h-107zM221 631h340v41q0 293 -164 293 t-176 -334zM326 -141h162v-182h-162v182z" />
<glyph unicode="&#x1ec8;" horiz-adv-x="428" d="M73 1867q4 54 46 93.5t96 39.5q70 0 111.5 -49.5t41.5 -120.5q0 -59 -52.5 -129.5t-52.5 -121.5v-30h-101v14q0 77 47.5 148.5t47.5 117.5q0 73 -48 73q-50 0 -55 -74zM137 0v1481h152v-1481h-152z" />
<glyph unicode="&#x1ec9;" horiz-adv-x="389" d="M59 1499q4 54 46 93.5t96 39.5q70 0 111.5 -49.5t41.5 -120.5q0 -59 -52.5 -129.5t-52.5 -121.5v-30h-101v14q0 77 47.5 148.5t47.5 117.5q0 73 -48 73q-50 0 -55 -74zM123 0v1063h143v-1063h-143z" />
<glyph unicode="&#x1eca;" horiz-adv-x="428" d="M133 -141h162v-182h-162v182zM137 0v1481h152v-1481h-152z" />
<glyph unicode="&#x1ecb;" horiz-adv-x="389" d="M115 -141h162v-182h-162v182zM123 0v1063h143v-1063h-143zM123 1313v168h143v-168h-143z" />
<glyph unicode="&#x1ecc;" horiz-adv-x="985" d="M84 741q0 768 408 768q409 0 409 -768q0 -770 -409 -770q-408 0 -408 770zM244 776q0 -360 59 -509q61 -156 189 -156q247 0 247 630q0 631 -247 631q-248 0 -248 -596zM415 -141h162v-182h-162v182z" />
<glyph unicode="&#x1ecd;" horiz-adv-x="782" d="M72 530q0 557 323 557q316 0 316 -557t-316 -557q-323 0 -323 557zM217 530q0 -177 19 -261q39 -169 157 -169q170 0 170 430q0 433 -170 433q-118 0 -157 -170q-19 -85 -19 -263zM313 -141h162v-182h-162v182z" />
<glyph unicode="&#x1ece;" horiz-adv-x="985" d="M84 741q0 768 408 768q409 0 409 -768q0 -770 -409 -770q-408 0 -408 770zM244 776q0 -360 59 -509q61 -156 189 -156q247 0 247 630q0 631 -247 631q-248 0 -248 -596zM352 1867q4 54 46 93.5t96 39.5q70 0 111.5 -49.5t41.5 -120.5q0 -59 -52.5 -129.5t-52.5 -121.5 v-30h-101v14q0 77 47.5 148.5t47.5 117.5q0 73 -48 73q-50 0 -55 -74z" />
<glyph unicode="&#x1ecf;" horiz-adv-x="782" d="M72 530q0 557 323 557q316 0 316 -557t-316 -557q-323 0 -323 557zM217 530q0 -177 19 -261q39 -169 157 -169q170 0 170 430q0 433 -170 433q-118 0 -157 -170q-19 -85 -19 -263zM257 1499q4 54 46 93.5t96 39.5q70 0 111.5 -49.5t41.5 -120.5q0 -59 -52.5 -129.5 t-52.5 -121.5v-30h-101v14q0 77 47.5 148.5t47.5 117.5q0 73 -48 73q-50 0 -55 -74z" />
<glyph unicode="&#x1ed0;" horiz-adv-x="985" d="M84 741q0 768 408 768q409 0 409 -768q0 -770 -409 -770q-408 0 -408 770zM204 1550l197 350h178l197 -350h-107l-178 244l-180 -244h-107zM244 776q0 -360 59 -509q61 -156 189 -156q247 0 247 630q0 631 -247 631q-248 0 -248 -596zM265 1940l209 350h178l-281 -350 h-106z" />
<glyph unicode="&#x1ed1;" horiz-adv-x="782" d="M72 530q0 557 323 557q316 0 316 -557t-316 -557q-323 0 -323 557zM104 1198l197 350h178l197 -350h-107l-178 244l-180 -244h-107zM165 1588l209 350h178l-281 -350h-106zM217 530q0 -177 19 -261q39 -169 157 -169q170 0 170 430q0 433 -170 433q-118 0 -157 -170 q-19 -85 -19 -263z" />
<glyph unicode="&#x1ed2;" horiz-adv-x="985" d="M84 741q0 768 408 768q409 0 409 -768q0 -770 -409 -770q-408 0 -408 770zM204 1550l197 350h178l197 -350h-107l-178 244l-180 -244h-107zM244 776q0 -360 59 -509q61 -156 189 -156q247 0 247 630q0 631 -247 631q-248 0 -248 -596zM328 2290h178l209 -350h-106z" />
<glyph unicode="&#x1ed3;" horiz-adv-x="782" d="M72 530q0 557 323 557q316 0 316 -557t-316 -557q-323 0 -323 557zM104 1198l197 350h178l197 -350h-107l-178 244l-180 -244h-107zM217 530q0 -177 19 -261q39 -169 157 -169q170 0 170 430q0 433 -170 433q-118 0 -157 -170q-19 -85 -19 -263zM228 1938h178l209 -350 h-106z" />
<glyph unicode="&#x1ed4;" horiz-adv-x="985" d="M84 741q0 768 408 768q409 0 409 -768q0 -770 -409 -770q-408 0 -408 770zM204 1550l197 350h178l197 -350h-107l-178 244l-180 -244h-107zM244 776q0 -360 59 -509q61 -156 189 -156q247 0 247 630q0 631 -247 631q-248 0 -248 -596zM556 2191q4 54 46 93.5t96 39.5 q70 0 111.5 -49.5t41.5 -120.5q0 -59 -52.5 -129.5t-52.5 -121.5v-30h-101v14q0 77 47.5 148.5t47.5 117.5q0 73 -48 73q-50 0 -55 -74z" />
<glyph unicode="&#x1ed5;" horiz-adv-x="782" d="M72 530q0 557 323 557q316 0 316 -557t-316 -557q-323 0 -323 557zM104 1198l197 350h178l197 -350h-107l-178 244l-180 -244h-107zM217 530q0 -177 19 -261q39 -169 157 -169q170 0 170 430q0 433 -170 433q-118 0 -157 -170q-19 -85 -19 -263zM457 1839q4 54 46 93.5 t96 39.5q70 0 111.5 -49.5t41.5 -120.5q0 -59 -52.5 -129.5t-52.5 -121.5v-30h-101v14q0 77 47.5 148.5t47.5 117.5q0 73 -48 73q-50 0 -55 -74z" />
<glyph unicode="&#x1ed6;" horiz-adv-x="985" d="M84 741q0 768 408 768q409 0 409 -768q0 -770 -409 -770q-408 0 -408 770zM204 1550l197 350h178l197 -350h-107l-178 244l-180 -244h-107zM244 776q0 -360 59 -509q61 -156 189 -156q247 0 247 630q0 631 -247 631q-248 0 -248 -596zM265 1969q45 187 199 187 q35 0 99 -23.5t99 -23.5q73 0 97 69h88q-50 -192 -199 -192q-35 0 -99 23.5t-99 23.5q-68 0 -97 -64h-88z" />
<glyph unicode="&#x1ed7;" horiz-adv-x="782" d="M72 530q0 557 323 557q316 0 316 -557t-316 -557q-323 0 -323 557zM104 1198l197 350h178l197 -350h-107l-178 244l-180 -244h-107zM165 1617q45 187 199 187q35 0 99 -23.5t99 -23.5q73 0 97 69h88q-50 -192 -199 -192q-35 0 -99 23.5t-99 23.5q-68 0 -97 -64h-88z M217 530q0 -177 19 -261q39 -169 157 -169q170 0 170 430q0 433 -170 433q-118 0 -157 -170q-19 -85 -19 -263z" />
<glyph unicode="&#x1ed8;" horiz-adv-x="985" d="M84 741q0 768 408 768q409 0 409 -768q0 -770 -409 -770q-408 0 -408 770zM204 1550l197 350h178l197 -350h-107l-178 244l-180 -244h-107zM244 776q0 -360 59 -509q61 -156 189 -156q247 0 247 630q0 631 -247 631q-248 0 -248 -596zM415 -141h162v-182h-162v182z" />
<glyph unicode="&#x1ed9;" horiz-adv-x="782" d="M72 530q0 557 323 557q316 0 316 -557t-316 -557q-323 0 -323 557zM104 1198l197 350h178l197 -350h-107l-178 244l-180 -244h-107zM217 530q0 -177 19 -261q39 -169 157 -169q170 0 170 430q0 433 -170 433q-118 0 -157 -170q-19 -85 -19 -263zM313 -141h162v-182h-162 v182z" />
<glyph unicode="&#x1eda;" horiz-adv-x="985" d="M84 741q0 768 408 768q409 0 409 -768q0 -770 -409 -770q-408 0 -408 770zM244 776q0 -360 59 -509q61 -156 189 -156q247 0 247 630q0 631 -247 631q-248 0 -248 -596zM357 1620l209 350h178l-281 -350h-106zM769 1164v113l69 165h-68v169h150v-178z" />
<glyph unicode="&#x1edb;" horiz-adv-x="782" d="M72 530q0 557 323 557q316 0 316 -557t-316 -557q-323 0 -323 557zM217 530q0 -177 19 -261q39 -169 157 -169q170 0 170 430q0 433 -170 433q-118 0 -157 -170q-19 -85 -19 -263zM254 1198l209 350h178l-281 -350h-106zM602 811v113l69 165h-68v169h150v-178z" />
<glyph unicode="&#x1edc;" horiz-adv-x="985" d="M84 741q0 768 408 768q409 0 409 -768q0 -770 -409 -770q-408 0 -408 770zM244 776q0 -360 59 -509q61 -156 189 -156q247 0 247 630q0 631 -247 631q-248 0 -248 -596zM244 1970h178l209 -350h-106zM769 1164v113l69 165h-68v169h150v-178z" />
<glyph unicode="&#x1edd;" horiz-adv-x="782" d="M72 530q0 557 323 557q316 0 316 -557t-316 -557q-323 0 -323 557zM141 1548h178l209 -350h-106zM217 530q0 -177 19 -261q39 -169 157 -169q170 0 170 430q0 433 -170 433q-118 0 -157 -170q-19 -85 -19 -263zM602 811v113l69 165h-68v169h150v-178z" />
<glyph unicode="&#x1ede;" horiz-adv-x="985" d="M84 741q0 768 408 768q409 0 409 -768q0 -770 -409 -770q-408 0 -408 770zM244 776q0 -360 59 -509q61 -156 189 -156q247 0 247 630q0 631 -247 631q-248 0 -248 -596zM352 1867q4 54 46 93.5t96 39.5q70 0 111.5 -49.5t41.5 -120.5q0 -59 -52.5 -129.5t-52.5 -121.5 v-30h-101v14q0 77 47.5 148.5t47.5 117.5q0 73 -48 73q-50 0 -55 -74zM769 1164v113l69 165h-68v169h150v-178z" />
<glyph unicode="&#x1edf;" horiz-adv-x="782" d="M72 530q0 557 323 557q316 0 316 -557t-316 -557q-323 0 -323 557zM217 530q0 -177 19 -261q39 -169 157 -169q170 0 170 430q0 433 -170 433q-118 0 -157 -170q-19 -85 -19 -263zM257 1499q4 54 46 93.5t96 39.5q70 0 111.5 -49.5t41.5 -120.5q0 -59 -52.5 -129.5 t-52.5 -121.5v-30h-101v14q0 77 47.5 148.5t47.5 117.5q0 73 -48 73q-50 0 -55 -74zM602 811v113l69 165h-68v169h150v-178z" />
<glyph unicode="&#x1ee0;" horiz-adv-x="985" d="M84 741q0 768 408 768q409 0 409 -768q0 -770 -409 -770q-408 0 -408 770zM203 1679q45 187 199 187q35 0 99 -23.5t99 -23.5q73 0 97 69h88q-50 -192 -199 -192q-35 0 -99 23.5t-99 23.5q-68 0 -97 -64h-88zM244 776q0 -360 59 -509q61 -156 189 -156q247 0 247 630 q0 631 -247 631q-248 0 -248 -596zM769 1164v113l69 165h-68v169h150v-178z" />
<glyph unicode="&#x1ee1;" horiz-adv-x="782" d="M72 530q0 557 323 557q316 0 316 -557t-316 -557q-323 0 -323 557zM100 1257q45 187 199 187q35 0 99 -23.5t99 -23.5q73 0 97 69h88q-50 -192 -199 -192q-35 0 -99 23.5t-99 23.5q-68 0 -97 -64h-88zM217 530q0 -177 19 -261q39 -169 157 -169q170 0 170 430 q0 433 -170 433q-118 0 -157 -170q-19 -85 -19 -263zM602 811v113l69 165h-68v169h150v-178z" />
<glyph unicode="&#x1ee2;" horiz-adv-x="985" d="M84 741q0 768 408 768q409 0 409 -768q0 -770 -409 -770q-408 0 -408 770zM244 776q0 -360 59 -509q61 -156 189 -156q247 0 247 630q0 631 -247 631q-248 0 -248 -596zM415 -141h162v-182h-162v182zM769 1164v113l69 165h-68v169h150v-178z" />
<glyph unicode="&#x1ee3;" horiz-adv-x="782" d="M72 530q0 557 323 557q316 0 316 -557t-316 -557q-323 0 -323 557zM217 530q0 -177 19 -261q39 -169 157 -169q170 0 170 430q0 433 -170 433q-118 0 -157 -170q-19 -85 -19 -263zM313 -141h162v-182h-162v182zM602 811v113l69 165h-68v169h150v-178z" />
<glyph unicode="&#x1ee4;" horiz-adv-x="1004" d="M129 518v963h152v-949q0 -271 48 -347q49 -79 173 -79q121 0 171 81q48 77 48 345v949h151v-963q0 -215 -21 -297q-40 -158 -180 -217q-76 -33 -169 -33q-95 0 -171 33q-141 60 -181 217q-21 81 -21 297zM415 -141h162v-182h-162v182z" />
<glyph unicode="&#x1ee5;" horiz-adv-x="846" d="M123 246v817h141v-768q0 -93 16 -132q26 -65 103 -65q111 0 197 140v825h141v-1063h-141v111q-123 -138 -252 -138q-205 0 -205 273zM343 -141h162v-182h-162v182z" />
<glyph unicode="&#x1ee6;" horiz-adv-x="1004" d="M129 518v963h152v-949q0 -271 48 -347q49 -79 173 -79q121 0 171 81q48 77 48 345v949h151v-963q0 -215 -21 -297q-40 -158 -180 -217q-76 -33 -169 -33q-95 0 -171 33q-141 60 -181 217q-21 81 -21 297zM370 1867q4 54 46 93.5t96 39.5q70 0 111.5 -49.5t41.5 -120.5 q0 -59 -52.5 -129.5t-52.5 -121.5v-30h-101v14q0 77 47.5 148.5t47.5 117.5q0 73 -48 73q-50 0 -55 -74z" />
<glyph unicode="&#x1ee7;" horiz-adv-x="846" d="M123 246v817h141v-768q0 -93 16 -132q26 -65 103 -65q111 0 197 140v825h141v-1063h-141v111q-123 -138 -252 -138q-205 0 -205 273zM282 1499q4 54 46 93.5t96 39.5q70 0 111.5 -49.5t41.5 -120.5q0 -59 -52.5 -129.5t-52.5 -121.5v-30h-101v14q0 77 47.5 148.5 t47.5 117.5q0 73 -48 73q-50 0 -55 -74z" />
<glyph unicode="&#x1ee8;" horiz-adv-x="1027" d="M129 518v963h152v-949q0 -271 48 -347q49 -79 173 -79q121 0 171 81q48 77 48 345v949h151v-963q0 -215 -21 -297q-40 -158 -180 -217q-76 -33 -169 -33q-95 0 -171 33q-141 60 -181 217q-21 81 -21 297zM365 1620l209 350h178l-281 -350h-106zM849 1164v113l69 165h-68 v169h150v-178z" />
<glyph unicode="&#x1ee9;" horiz-adv-x="878" d="M123 246v817h141v-768q0 -93 16 -132q26 -65 103 -65q111 0 197 140v825h141v-1063h-141v111q-123 -138 -252 -138q-205 0 -205 273zM287 1198l209 350h178l-281 -350h-106zM708 811v113l69 165h-68v169h150v-178z" />
<glyph unicode="&#x1eea;" horiz-adv-x="1027" d="M129 518v963h152v-949q0 -271 48 -347q49 -79 173 -79q121 0 171 81q48 77 48 345v949h151v-963q0 -215 -21 -297q-40 -158 -180 -217q-76 -33 -169 -33q-95 0 -171 33q-141 60 -181 217q-21 81 -21 297zM252 1970h178l209 -350h-106zM849 1164v113l69 165h-68v169h150 v-178z" />
<glyph unicode="&#x1eeb;" horiz-adv-x="878" d="M123 246v817h141v-768q0 -93 16 -132q26 -65 103 -65q111 0 197 140v825h141v-1063h-141v111q-123 -138 -252 -138q-205 0 -205 273zM174 1548h178l209 -350h-106zM708 811v113l69 165h-68v169h150v-178z" />
<glyph unicode="&#x1eec;" horiz-adv-x="1027" d="M129 518v963h152v-949q0 -271 48 -347q49 -79 173 -79q121 0 171 81q48 77 48 345v949h151v-963q0 -215 -21 -297q-40 -158 -180 -217q-76 -33 -169 -33q-95 0 -171 33q-141 60 -181 217q-21 81 -21 297zM370 1867q4 54 46 93.5t96 39.5q70 0 111.5 -49.5t41.5 -120.5 q0 -59 -52.5 -129.5t-52.5 -121.5v-30h-101v14q0 77 47.5 148.5t47.5 117.5q0 73 -48 73q-50 0 -55 -74zM849 1164v113l69 165h-68v169h150v-178z" />
<glyph unicode="&#x1eed;" horiz-adv-x="878" d="M123 246v817h141v-768q0 -93 16 -132q26 -65 103 -65q111 0 197 140v825h141v-1063h-141v111q-123 -138 -252 -138q-205 0 -205 273zM282 1499q4 54 46 93.5t96 39.5q70 0 111.5 -49.5t41.5 -120.5q0 -59 -52.5 -129.5t-52.5 -121.5v-30h-101v14q0 77 47.5 148.5 t47.5 117.5q0 73 -48 73q-50 0 -55 -74zM708 811v113l69 165h-68v169h150v-178z" />
<glyph unicode="&#x1eee;" horiz-adv-x="1027" d="M129 518v963h152v-949q0 -271 48 -347q49 -79 173 -79q121 0 171 81q48 77 48 345v949h151v-963q0 -215 -21 -297q-40 -158 -180 -217q-76 -33 -169 -33q-95 0 -171 33q-141 60 -181 217q-21 81 -21 297zM213 1679q45 187 199 187q35 0 99 -23.5t99 -23.5q73 0 97 69h88 q-50 -192 -199 -192q-35 0 -99 23.5t-99 23.5q-68 0 -97 -64h-88zM849 1164v113l69 165h-68v169h150v-178z" />
<glyph unicode="&#x1eef;" horiz-adv-x="878" d="M123 246v817h141v-768q0 -93 16 -132q26 -65 103 -65q111 0 197 140v825h141v-1063h-141v111q-123 -138 -252 -138q-205 0 -205 273zM140 1257q45 187 199 187q35 0 99 -23.5t99 -23.5q73 0 97 69h88q-50 -192 -199 -192q-35 0 -99 23.5t-99 23.5q-68 0 -97 -64h-88z M708 811v113l69 165h-68v169h150v-178z" />
<glyph unicode="&#x1ef0;" horiz-adv-x="1027" d="M129 518v963h152v-949q0 -271 48 -347q49 -79 173 -79q121 0 171 81q48 77 48 345v949h151v-963q0 -215 -21 -297q-40 -158 -180 -217q-76 -33 -169 -33q-95 0 -171 33q-141 60 -181 217q-21 81 -21 297zM415 -141h162v-182h-162v182zM849 1164v113l69 165h-68v169h150 v-178z" />
<glyph unicode="&#x1ef1;" horiz-adv-x="878" d="M123 246v817h141v-768q0 -93 16 -132q26 -65 103 -65q111 0 197 140v825h141v-1063h-141v111q-123 -138 -252 -138q-205 0 -205 273zM343 -141h162v-182h-162v182zM708 811v113l69 165h-68v169h150v-178z" />
<glyph unicode="&#x1ef2;" horiz-adv-x="772" d="M-23 1481h158l254 -674l248 674h156l-328 -844v-637h-156v637zM112 1970h178l209 -350h-106z" />
<glyph unicode="&#x1ef3;" horiz-adv-x="711" d="M18 1063h148l184 -801l180 801h142l-248 -1059q-41 -175 -108 -257q-87 -105 -246 -105q-31 0 -45 2v131q12 -2 36 -2q182 0 228 239zM104 1548h178l209 -350h-106z" />
<glyph unicode="&#x1ef4;" horiz-adv-x="772" d="M-23 1481h158l254 -674l248 674h156l-328 -844v-637h-156v637zM305 -141h162v-182h-162v182z" />
<glyph unicode="&#x1ef5;" horiz-adv-x="711" d="M18 1063h148l184 -801l180 801h142l-248 -1059q-41 -175 -108 -257q-87 -105 -246 -105q-31 0 -45 2v131q12 -2 36 -2q182 0 228 239zM445 -141h162v-182h-162v182z" />
<glyph unicode="&#x1ef6;" horiz-adv-x="772" d="M-23 1481h158l254 -674l248 674h156l-328 -844v-637h-156v637zM260 1867q4 54 46 93.5t96 39.5q70 0 111.5 -49.5t41.5 -120.5q0 -59 -52.5 -129.5t-52.5 -121.5v-30h-101v14q0 77 47.5 148.5t47.5 117.5q0 73 -48 73q-50 0 -55 -74z" />
<glyph unicode="&#x1ef7;" horiz-adv-x="711" d="M18 1063h148l184 -801l180 801h142l-248 -1059q-41 -175 -108 -257q-87 -105 -246 -105q-31 0 -45 2v131q12 -2 36 -2q182 0 228 239zM212 1499q4 54 46 93.5t96 39.5q70 0 111.5 -49.5t41.5 -120.5q0 -59 -52.5 -129.5t-52.5 -121.5v-30h-101v14q0 77 47.5 148.5 t47.5 117.5q0 73 -48 73q-50 0 -55 -74z" />
<glyph unicode="&#x1ef8;" horiz-adv-x="772" d="M-23 1481h158l254 -674l248 674h156l-328 -844v-637h-156v637zM100 1679q45 187 199 187q35 0 99 -23.5t99 -23.5q73 0 97 69h88q-50 -192 -199 -192q-35 0 -99 23.5t-99 23.5q-68 0 -97 -64h-88z" />
<glyph unicode="&#x1ef9;" horiz-adv-x="711" d="M18 1063h148l184 -801l180 801h142l-248 -1059q-41 -175 -108 -257q-87 -105 -246 -105q-31 0 -45 2v131q12 -2 36 -2q182 0 228 239zM60 1257q45 187 199 187q35 0 99 -23.5t99 -23.5q73 0 97 69h88q-50 -192 -199 -192q-35 0 -99 23.5t-99 23.5q-68 0 -97 -64h-88z" />
<glyph unicode="&#x2000;" horiz-adv-x="1162" />
<glyph unicode="&#x2001;" horiz-adv-x="2324" />
<glyph unicode="&#x2002;" horiz-adv-x="1162" />
<glyph unicode="&#x2003;" horiz-adv-x="2324" />
<glyph unicode="&#x2004;" horiz-adv-x="774" />
<glyph unicode="&#x2005;" horiz-adv-x="581" />
<glyph unicode="&#x2006;" horiz-adv-x="387" />
<glyph unicode="&#x2007;" horiz-adv-x="387" />
<glyph unicode="&#x2008;" horiz-adv-x="290" />
<glyph unicode="&#x2009;" horiz-adv-x="464" />
<glyph unicode="&#x200a;" horiz-adv-x="129" />
<glyph unicode="&#x2010;" horiz-adv-x="674" d="M92 467v127h490v-127h-490z" />
<glyph unicode="&#x2011;" horiz-adv-x="674" d="M92 467v127h490v-127h-490z" />
<glyph unicode="&#x2012;" horiz-adv-x="674" d="M92 467v127h490v-127h-490z" />
<glyph unicode="&#x2013;" horiz-adv-x="1024" d="M0 483v95h1024v-95h-1024z" />
<glyph unicode="&#x2014;" horiz-adv-x="2048" d="M0 483v95h2048v-95h-2048z" />
<glyph unicode="&#x2018;" horiz-adv-x="436" d="M141 1030v195l121 284h60l-93 -297h74v-182h-162z" />
<glyph unicode="&#x2019;" horiz-adv-x="436" d="M129 1030l92 297h-74v182h162v-192l-121 -287h-59z" />
<glyph unicode="&#x201a;" horiz-adv-x="436" d="M127 -293l90 293h-72v186h162v-194l-121 -285h-59z" />
<glyph unicode="&#x201c;" horiz-adv-x="748" d="M141 1030v195l121 284h60l-93 -297h74v-182h-162zM451 1030v195l122 284h60l-92 -297h71v-182h-161z" />
<glyph unicode="&#x201d;" horiz-adv-x="748" d="M129 1030l92 297h-74v182h162v-192l-121 -287h-59zM440 1030l90 297h-71v182h162v-192l-121 -287h-60z" />
<glyph unicode="&#x201e;" horiz-adv-x="748" d="M121 -295l90 295h-72v184h162v-194l-121 -285h-59zM430 -295l92 295h-73v184h161v-194l-121 -285h-59z" />
<glyph unicode="&#x2020;" horiz-adv-x="1024" d="M145 938v180l328 -53l-53 416h180l-53 -416l327 53v-180l-327 53q22 -193 53 -358q-23 -120 -35 -334q-13 -210 -16 -524h-78q-3 465 -35 740q-16 140 -16 118q0 -2 11 62q30 166 42 296z" />
<glyph unicode="&#x2021;" horiz-adv-x="1024" d="M147 162v180l330 -53q-19 176 -55 350q22 117 51 352l-326 -53v180l328 -53l-53 416h180l-53 -416l328 53v-180l-328 53q12 -124 42 -294q11 -59 11 -58q0 -4 -8 -48q-33 -183 -45 -302l328 53v-180l-328 53l53 -418h-180l53 418z" />
<glyph unicode="&#x2022;" horiz-adv-x="1208" d="M307 762q0 124 86.5 209.5t210.5 85.5q123 0 209 -86t86 -209t-87 -210t-210 -87q-124 0 -209.5 86.5t-85.5 210.5z" />
<glyph unicode="&#x2026;" horiz-adv-x="2048" d="M260 0v182h162v-182h-162zM942 0v182h162v-182h-162zM1626 0v182h162v-182h-162z" />
<glyph unicode="&#x202f;" horiz-adv-x="464" />
<glyph unicode="&#x2030;" horiz-adv-x="2261" d="M88 1182q0 130 90.5 220.5t220.5 90.5t221 -90.5t91 -220.5t-91 -221t-221 -91t-220.5 91t-90.5 221zM199 1182q0 -84 58 -141.5t142 -57.5t141.5 57.5t57.5 141.5t-57.5 141t-141.5 57q-83 0 -141.5 -57.5t-58.5 -140.5zM233 -29l908 1522h112l-907 -1522h-113zM801 287 q0 130 90.5 220.5t220.5 90.5t219.5 -90.5t89.5 -220.5t-89.5 -221t-219.5 -91t-220.5 91t-90.5 221zM911 287q0 -84 57.5 -141.5t141.5 -57.5t141.5 57.5t57.5 141.5t-57.5 141t-141.5 57t-141.5 -57t-57.5 -141zM1556 287q0 130 91 220.5t221 90.5t220.5 -90.5 t90.5 -220.5t-90.5 -221t-220.5 -91t-221 91t-91 221zM1667 287q0 -84 58.5 -141.5t142.5 -57.5t141 57.5t57 141.5t-57 141t-141 57t-142.5 -57.5t-58.5 -140.5z" />
<glyph unicode="&#x2039;" horiz-adv-x="541" d="M76 530l243 312h123l-237 -312l237 -311h-125z" />
<glyph unicode="&#x203a;" horiz-adv-x="541" d="M76 219l237 311l-235 312h123l241 -312l-241 -311h-125z" />
<glyph unicode="&#x2044;" horiz-adv-x="342" d="M-340 -29l903 1514h109l-903 -1514h-109z" />
<glyph unicode="&#x205f;" horiz-adv-x="581" />
<glyph unicode="&#x20a3;" horiz-adv-x="1337" d="M133 0v1481h621v-138h-469v-509h360v-136h-360v-698h-152zM922 0v1063h143v-123q103 145 242 145q5 0 15.5 -1t15.5 -1v-137q-5 0 -15.5 1t-15.5 1q-155 0 -242 -166v-782h-143z" />
<glyph unicode="&#x20ab;" horiz-adv-x="610" d="M45 812q0 391 202 391q77 0 149 -85v194h-137v60h137v109h100v-109h88v-60h-88v-875h-100v69q-70 -87 -147 -87q-204 0 -204 393zM84 231v70h404v-70h-404zM149 821q0 -311 120 -311q68 0 127 96v419q-61 95 -127 95q-120 0 -120 -299z" />
<glyph unicode="&#x2122;" horiz-adv-x="1706" d="M264 1397v57h430v-57h-172v-473h-82v473h-176zM821 924v530h117l166 -422l156 422h116v-530h-71v467l-177 -467h-49l-186 467v-467h-72z" />
<glyph unicode="&#x2202;" horiz-adv-x="1034" d="M125 358q0 168 100 294q107 136 271 136q191 0 256 -196q24 166 24 309q0 326 -155 326q-45 0 -108 -68.5t-103 -68.5q-29 0 -51.5 19t-22.5 48q0 72 77 116q64 36 142 36q193 0 289 -193q74 -150 74 -364q0 -334 -136 -556.5t-333 -222.5q-154 0 -243 119 q-81 107 -81 266zM272 274q0 -251 179 -251q134 0 205 162q55 124 55 278q0 258 -179 258q-137 0 -207 -165q-53 -124 -53 -282z" />
<glyph unicode="&#x220f;" horiz-adv-x="1509" d="M160 -393v1866h1188v-1866h-168v1718h-852v-1718h-168z" />
<glyph unicode="&#x2211;" horiz-adv-x="1317" d="M14 -260l744 821l-709 772v140h1223v-144h-1014l705 -766l-740 -813h1057v-143h-1266v133z" />
<glyph unicode="&#x2212;" horiz-adv-x="1706" d="M254 561v98h1198v-98h-1198z" />
<glyph unicode="&#x2219;" horiz-adv-x="436" d="M113 735q0 43 30.5 74t73.5 31t75 -31t32 -74t-32 -74.5t-75 -31.5q-45 0 -74.5 30.5t-29.5 75.5z" />
<glyph unicode="&#x221a;" horiz-adv-x="1276" d="M55 877l246 86l272 -746l525 1419h178v-71h-125l-594 -1606h-41l-328 899l-114 -39z" />
<glyph unicode="&#x221e;" horiz-adv-x="1706" d="M233 612q0 152 69 256q80 121 224 121q186 0 312 -268q134 268 331 268q138 0 226 -121q80 -109 80 -252q0 -152 -69 -256q-80 -122 -224 -122q-179 0 -314 264q-135 -264 -321 -264q-144 0 -233 118q-81 108 -81 256zM289 600q0 -104 56 -179q62 -83 163 -83 q105 0 192 118q50 68 111 212q-103 196 -281 196q-110 0 -177 -78q-64 -74 -64 -186zM897 559q103 -199 281 -199q111 0 178 79q63 75 63 188q0 105 -56 180q-61 82 -163 82q-104 0 -191 -119q-49 -67 -112 -211z" />
<glyph unicode="&#x222b;" horiz-adv-x="985" d="M45 -244q0 111 113 111q90 0 109 -101q7 -38 26 -38q103 0 117 713l4 196q12 491 98 699q88 212 268 212q65 0 109 -33q49 -37 49 -100q0 -104 -107 -104q-76 0 -103 69.5t-34 69.5q-103 0 -116 -623q-2 -96 -7 -289q-16 -501 -101 -703q-87 -206 -267 -206 q-63 0 -108 31q-50 36 -50 96z" />
<glyph unicode="&#x2248;" horiz-adv-x="1706" d="M178 303v111q210 145 387 145q101 0 295 -68.5t283 -68.5q164 0 387 158v-111q-208 -145 -387 -145q-99 0 -290 69.5t-288 69.5q-153 0 -387 -160zM178 641v113q209 145 387 145q101 0 295 -69.5t283 -69.5q158 0 387 158v-111q-204 -145 -387 -145q-99 0 -290 69.5 t-288 69.5q-153 0 -387 -160z" />
<glyph unicode="&#x2260;" horiz-adv-x="1706" d="M254 375v98h428l215 277h-643v96h707l253 323l74 -59l-205 -264h369v-96h-432l-215 -277h647v-98h-709l-254 -324l-73 60l205 264h-367z" />
<glyph unicode="&#x2264;" horiz-adv-x="1706" d="M264 41v98h1178v-98h-1178zM264 696v84l1178 402v-107l-1010 -338l1010 -336v-106z" />
<glyph unicode="&#x2265;" horiz-adv-x="1706" d="M264 41v98h1178v-98h-1178zM264 295v106l1010 336l-1010 338v107l1178 -402v-84z" />
<glyph unicode="&#x255f;" horiz-adv-x="901" d="M27 0l321 1481h209l324 -1481h-160l-86 436h-373l-86 -436h-149zM295 575h309l-155 775z" />
<glyph unicode="&#x2560;" horiz-adv-x="854" d="M133 0v1481h666v-138h-514v-509h377v-136h-377v-561h532v-137h-684z" />
<glyph unicode="&#x2561;" horiz-adv-x="428" d="M137 0v1481h152v-1481h-152z" />
<glyph unicode="&#x2562;" horiz-adv-x="985" d="M84 741q0 768 408 768q409 0 409 -768q0 -770 -409 -770q-408 0 -408 770zM244 776q0 -360 59 -509q61 -156 189 -156q247 0 247 630q0 631 -247 631q-248 0 -248 -596z" />
<glyph unicode="&#x2563;" horiz-adv-x="1004" d="M129 518v963h152v-949q0 -271 48 -347q49 -79 173 -79q121 0 171 81q48 77 48 345v949h151v-963q0 -215 -21 -297q-40 -158 -180 -217q-76 -33 -169 -33q-95 0 -171 33q-141 60 -181 217q-21 81 -21 297z" />
<glyph unicode="&#x2564;" horiz-adv-x="772" d="M-23 1481h158l254 -674l248 674h156l-328 -844v-637h-156v637z" />
<glyph unicode="&#x2565;" d="M72 258q0 322 501 449v24q0 119 -21 163q-33 69 -138 69q-137 0 -172 -201l-138 22q51 301 308 301q170 0 242 -95q63 -83 63 -259v-485q0 -126 18 -246h-145l-17 96q-106 -106 -243 -106q-122 0 -191 74q-67 71 -67 194zM213 256q0 -62 39.5 -102.5t101.5 -40.5 q101 0 219 114v344q-146 -32 -239 -100q-121 -87 -121 -215z" />
<glyph unicode="&#x2566;" horiz-adv-x="780" d="M76 530q0 557 323 557q308 0 308 -491q0 -60 -3 -84h-484q1 -170 22 -253q39 -159 157 -159q155 0 165 248h134q-8 -158 -73 -256q-79 -119 -226 -119q-323 0 -323 557zM221 631h340v41q0 293 -164 293t-176 -334z" />
<glyph unicode="&#x2567;" horiz-adv-x="389" d="M123 0v1063h143v-1063h-143zM123 1313v168h143v-168h-143z" />
<glyph unicode="&#x2568;" horiz-adv-x="389" d="M123 0v1063h143v-1063h-143z" />
<glyph unicode="&#x2569;" horiz-adv-x="782" d="M72 530q0 557 323 557q316 0 316 -557t-316 -557q-323 0 -323 557zM217 530q0 -177 19 -261q39 -169 157 -169q170 0 170 430q0 433 -170 433q-118 0 -157 -170q-19 -85 -19 -263z" />
<glyph unicode="&#x256a;" horiz-adv-x="846" d="M123 246v817h141v-768q0 -93 16 -132q26 -65 103 -65q111 0 197 140v825h141v-1063h-141v111q-123 -138 -252 -138q-205 0 -205 273z" />
<glyph unicode="&#x256b;" horiz-adv-x="711" d="M18 1063h148l184 -801l180 801h142l-248 -1059q-41 -175 -108 -257q-87 -105 -246 -105q-31 0 -45 2v131q12 -2 36 -2q182 0 228 239z" />
<glyph unicode="&#x25ca;" horiz-adv-x="1012" d="M6 592l500 1061l500 -1061l-500 -1069zM121 592l385 -825l385 825l-385 817z" />
<glyph unicode="&#x25cb;" horiz-adv-x="901" d="M164 1550l197 350h178l197 -350h-107l-178 244l-180 -244h-107zM225 1940l209 350h178l-281 -350h-106z" />
<glyph unicode="&#x25cf;" horiz-adv-x="901" d="M164 1550l197 350h178l197 -350h-107l-178 244l-180 -244h-107zM288 2290h178l209 -350h-106z" />
<glyph unicode="&#x25d8;" horiz-adv-x="901" d="M164 1550l197 350h178l197 -350h-107l-178 244l-180 -244h-107zM516 2191q4 54 46 93.5t96 39.5q70 0 111.5 -49.5t41.5 -120.5q0 -59 -52.5 -129.5t-52.5 -121.5v-30h-101v14q0 77 47.5 148.5t47.5 117.5q0 73 -48 73q-50 0 -55 -74z" />
<glyph unicode="&#x25d9;" horiz-adv-x="901" d="M164 1550l197 350h178l197 -350h-107l-178 244l-180 -244h-107zM225 1969q45 187 199 187q35 0 99 -23.5t99 -23.5q73 0 97 69h88q-50 -192 -199 -192q-35 0 -99 23.5t-99 23.5q-68 0 -97 -64h-88z" />
<glyph unicode="&#x25fc;" horiz-adv-x="1065" d="M0 0v1065h1065v-1065h-1065z" />
<glyph unicode="&#xf000;" horiz-adv-x="1618" d="M113 737q0 211 117 348q124 146 331 146q57 0 150 -34t129 -34q35 0 127 34t147 34q219 0 359 -162q-201 -128 -201 -328q0 -233 233 -338q-90 -195 -153 -280q-118 -158 -256 -158q-45 0 -128 33t-126 33q-45 0 -129.5 -33t-128.5 -33q-128 0 -259 176q-99 134 -156 296 q-56 155 -56 300zM834 1253q0 132 101 237q96 99 230 124q2 -20 2 -62q0 -131 -103.5 -234.5t-211.5 -103.5q-3 0 -8.5 1t-7.5 1q-2 12 -2 37z" />
<glyph unicode="&#xf001;" horiz-adv-x="874" d="M-4 938v125h160v125q0 154 30 217q45 96 179 96q64 0 110 -10v-115q-42 10 -63 10q-80 0 -102 -54q-13 -30 -13 -126v-143h170v-125h-170v-938h-141v938h-160zM608 0v1063h144v-1063h-144zM608 1313v168h144v-168h-144z" />
<glyph unicode="&#xf002;" horiz-adv-x="874" d="M-4 938v125h160v125q0 154 30 217q45 96 179 96q64 0 110 -10v-115q-42 10 -63 10q-80 0 -102 -54q-13 -30 -13 -126v-143h170v-125h-170v-938h-141v938h-160zM608 0v1481h144v-1481h-144z" />
<glyph horiz-adv-x="434" />
<glyph horiz-adv-x="436" d="M152 1048v113l69 165h-68v169h150v-178z" />
<glyph horiz-adv-x="723" d="M337 1479q4 54 46 93.5t96 39.5q70 0 111.5 -49.5t41.5 -120.5q0 -59 -52.5 -129.5t-52.5 -121.5v-30h-101v14q0 77 47.5 148.5t47.5 117.5q0 73 -48 73q-50 0 -55 -74z" />
<glyph d="M140 1198l197 350h178l197 -350h-107l-178 244l-180 -244h-107zM201 1588l209 350h178l-281 -350h-106z" />
<glyph d="M140 1198l197 350h178l197 -350h-107l-178 244l-180 -244h-107zM264 1938h178l209 -350h-106z" />
<glyph d="M140 1198l197 350h178l197 -350h-107l-178 244l-180 -244h-107zM493 1839q4 54 46 93.5t96 39.5q70 0 111.5 -49.5t41.5 -120.5q0 -59 -52.5 -129.5t-52.5 -121.5v-30h-101v14q0 77 47.5 148.5t47.5 117.5q0 73 -48 73q-50 0 -55 -74z" />
<glyph d="M140 1198l197 350h178l197 -350h-107l-178 244l-180 -244h-107zM201 1617q45 187 199 187q35 0 99 -23.5t99 -23.5q73 0 97 69h88q-50 -192 -199 -192q-35 0 -99 23.5t-99 23.5q-68 0 -97 -64h-88z" />
<glyph d="M144 1509h89q13 -145 193 -145t193 145h90q-21 -272 -283 -272q-264 0 -282 272zM271 1588l209 350h178l-281 -350h-106z" />
<glyph d="M144 1509h89q13 -145 193 -145t193 145h90q-21 -272 -283 -272q-264 0 -282 272zM194 1938h178l209 -350h-106z" />
<glyph d="M144 1509h89q13 -145 193 -145t193 145h90q-21 -272 -283 -272q-264 0 -282 272zM279 1839q4 54 46 93.5t96 39.5q70 0 111.5 -49.5t41.5 -120.5q0 -59 -52.5 -129.5t-52.5 -121.5v-30h-101v14q0 77 47.5 148.5t47.5 117.5q0 73 -48 73q-50 0 -55 -74z" />
<glyph d="M144 1509h89q13 -145 193 -145t193 145h90q-21 -272 -283 -272q-264 0 -282 272zM201 1617q45 187 199 187q35 0 99 -23.5t99 -23.5q73 0 97 69h88q-50 -192 -199 -192q-35 0 -99 23.5t-99 23.5q-68 0 -97 -64h-88z" />
</font>
</defs>
</svg>
